<svg width="29" height="33" viewBox="0 0 29 33" fill="none" xmlns="http://www.w3.org/2000/svg">
<path d="M1.14832 7.14446L13.5229 14.6033V0.0131836L10.8173 1.563V10.0044L6.38094 7.26696L8.93733 5.65057V2.6468L1.14832 7.14446Z" fill="#F4E096"/>
<path d="M27.5399 25.1567L15.2692 17.7458V32.2401L17.9507 30.6929V22.3447L22.3871 25.0795L19.8307 26.6959V29.6065L27.5399 25.1567Z" fill="#F4E096"/>
<path d="M25.3829 5.8371L17.8762 10.0498V4.73732L20.7335 6.44158L23.4896 4.74531L15.2692 0V14.6114L27.7769 7.22182L25.3829 5.8371Z" fill="#F4E096"/>
<path d="M3.50987 26.4589L10.9154 22.3048V27.6199L8.05812 25.9157L5.40054 27.5507L13.5224 32.2401V17.7458L1.11325 25.0768L3.50987 26.4589Z" fill="#F4E096"/>
<path d="M28.7941 9.03784V18.2196L26.235 16.7283V13.4157L23.3458 15.0454L21.4258 16.1265L26.235 18.9279L28.7941 20.4191V23.4362L18.7948 17.6098L16.2358 16.1185L17.8096 15.2318L18.8667 14.6353L20.784 13.5541L26.235 10.4811L28.7941 9.03784Z" fill="#F4E096"/>
<path d="M0 23.4362V14.2545L2.55906 15.7457V19.0584L5.44832 17.4287L7.36828 16.3475L2.55906 13.5462L0 12.0549V9.03784L9.99923 14.8643L12.5583 16.3555L10.9845 17.2423L9.92734 17.8388L8.01004 18.9199L2.55906 21.9929L0 23.4362Z" fill="#F4E096"/>
</svg>
