<svg width="25" height="24" viewBox="0 0 25 24" fill="none" xmlns="http://www.w3.org/2000/svg">
<g id="Bell_pin">
<path id="Subtract" fill-rule="evenodd" clip-rule="evenodd" d="M15.3661 2.47362C14.6052 2.16764 13.7758 2 12.9108 2C9.55474 2 6.73537 4.52345 6.36476 7.85899L6.11296 10.1252L6.10691 10.1793C5.99408 11.1625 5.67404 12.1106 5.16791 12.9611L5.13996 13.0077L4.56193 13.9711L4.53778 14.0114C4.29626 14.4138 4.07744 14.7785 3.93169 15.0879C3.78357 15.4024 3.6252 15.8286 3.70143 16.3117C3.77678 16.7893 4.02256 17.2233 4.39328 17.5337C4.76835 17.8476 5.21523 17.931 5.56112 17.9658C5.90149 18.0001 6.32674 18 6.79613 18L6.84303 18H18.9786L19.0255 18C19.4949 18 19.9201 18.0001 20.2605 17.9658C20.6064 17.931 21.0532 17.8476 21.4283 17.5337C21.799 17.2233 22.0448 16.7893 22.1202 16.3117C22.1964 15.8286 22.038 15.4024 21.8899 15.0879C21.7442 14.7785 21.5253 14.4138 21.2838 14.0114L21.2597 13.9711L20.6816 13.0077L20.6537 12.9611C20.275 12.3247 20.0004 11.6336 19.8389 10.914C19.5382 10.9705 19.2279 11 18.9108 11C18.5268 11 18.153 10.9567 17.7938 10.8748C17.9784 11.9715 18.3649 13.0259 18.935 13.9839L18.9667 14.0367L19.5447 15.0001C19.8182 15.456 19.983 15.733 20.0805 15.9401C20.0859 15.9514 20.0908 15.9621 20.0952 15.972C20.0844 15.9733 20.0727 15.9746 20.0603 15.9759C19.8325 15.9988 19.5102 16 18.9786 16H6.84303C6.31144 16 5.98906 15.9988 5.76132 15.9759C5.74886 15.9746 5.73722 15.9733 5.72635 15.972C5.73084 15.9621 5.73573 15.9514 5.74106 15.9401C5.83859 15.733 6.00341 15.456 6.27691 15.0001L6.85495 14.0367L6.88658 13.9839C7.53732 12.8904 7.9488 11.6714 8.09387 10.4073L8.10072 10.3461L8.35253 8.07985C8.6106 5.75718 10.5738 4 12.9108 4C13.3738 4 13.8222 4.06898 14.2455 4.19767C14.4974 3.54594 14.882 2.96023 15.3661 2.47362ZM17.8929 4.27804C17.305 4.62632 16.9108 5.26713 16.9108 6C16.9108 6.14503 16.9262 6.28645 16.9556 6.42272C17.076 6.6476 17.1783 6.88404 17.2605 7.13021C17.621 7.65547 18.2256 8 18.9108 8C19.1027 8 19.2882 7.97298 19.4639 7.92254L19.4568 7.85899C19.3046 6.48875 18.7391 5.25555 17.8929 4.27804Z" fill="#2C3131"/>
<path id="Ellipse 45" d="M10.0124 17.6647C10.1833 18.6215 10.5599 19.467 11.0839 20.0701C11.6078 20.6731 12.2498 21 12.9102 21C13.5706 21 14.2125 20.6731 14.7364 20.0701C15.2604 19.467 15.637 18.6215 15.8079 17.6647" stroke="#2C3131" stroke-width="2" stroke-linecap="round"/>
<circle id="Ellipse 6" cx="18.9102" cy="6" r="2.5" fill="#E25C5C" stroke="#E25C5C"/>
</g>
</svg>
