<svg width="21" height="20" viewBox="0 0 21 20" fill="none" xmlns="http://www.w3.org/2000/svg">
<g id="fluent:search-24-filled">
<path id="Vector" d="M9.24284 2.08325C10.4078 2.08321 11.5496 2.40876 12.5394 3.02319C13.5292 3.63761 14.3275 4.51644 14.8444 5.5605C15.3612 6.60457 15.5759 7.7723 15.4643 8.93193C15.3528 10.0915 14.9193 11.1969 14.2128 12.1233L18.1653 16.0774C18.3148 16.2274 18.4016 16.4286 18.408 16.6402C18.4145 16.8519 18.3402 17.058 18.2001 17.2168C18.0601 17.3756 17.8649 17.4752 17.6541 17.4952C17.4433 17.5153 17.2328 17.4544 17.0653 17.3249L16.987 17.2558L13.0328 13.3033C12.2437 13.905 11.3226 14.3102 10.3457 14.4852C9.36885 14.6603 8.36436 14.6002 7.41534 14.31C6.46631 14.0198 5.60004 13.5077 4.88821 12.8162C4.17638 12.1247 3.63945 11.2736 3.32186 10.3334C3.00426 9.39319 2.91513 8.39085 3.06183 7.40934C3.20853 6.42783 3.58686 5.49537 4.1655 4.68911C4.74414 3.88285 5.50645 3.22597 6.38937 2.77282C7.27229 2.31968 8.25042 2.0833 9.24284 2.08325ZM9.24284 3.74992C8.02726 3.74992 6.86147 4.2328 6.00193 5.09235C5.14239 5.95189 4.6595 7.11768 4.6595 8.33325C4.6595 9.54883 5.14239 10.7146 6.00193 11.5742C6.86147 12.4337 8.02726 12.9166 9.24284 12.9166C10.4584 12.9166 11.6242 12.4337 12.4837 11.5742C13.3433 10.7146 13.8262 9.54883 13.8262 8.33325C13.8262 7.11768 13.3433 5.95189 12.4837 5.09235C11.6242 4.2328 10.4584 3.74992 9.24284 3.74992Z" fill="#626262"/>
</g>
</svg>
