<svg width="25" height="24" viewBox="0 0 25 24" fill="none" xmlns="http://www.w3.org/2000/svg">
<g id="wallet-02">
<path id="Icon" d="M16.9102 8.00007V4.50073C16.9102 3.66899 16.9102 3.25312 16.7349 2.99755C16.5819 2.77425 16.3448 2.62257 16.0779 2.57715C15.7724 2.52517 15.3948 2.69944 14.6397 3.04799L5.76917 7.14206C5.09566 7.45291 4.75891 7.60834 4.51226 7.84939C4.29421 8.06249 4.12777 8.32262 4.02566 8.6099C3.91016 8.93486 3.91016 9.30575 3.91016 10.0475V15.0001M17.4102 14.5001H17.4202M3.91016 11.2001L3.91016 17.8001C3.91016 18.9202 3.91016 19.4802 4.12814 19.9081C4.31989 20.2844 4.62585 20.5903 5.00218 20.7821C5.43 21.0001 5.99005 21.0001 7.11016 21.0001H18.7102C19.8303 21.0001 20.3903 21.0001 20.8181 20.7821C21.1945 20.5903 21.5004 20.2844 21.6922 19.9081C21.9102 19.4802 21.9102 18.9202 21.9102 17.8001V11.2001C21.9102 10.08 21.9102 9.51992 21.6922 9.09209C21.5004 8.71577 21.1945 8.40981 20.8181 8.21806C20.3903 8.00007 19.8303 8.00007 18.7102 8.00007L7.11016 8.00007C5.99005 8.00007 5.43 8.00007 5.00218 8.21806C4.62585 8.40981 4.31989 8.71577 4.12814 9.09209C3.91016 9.51991 3.91016 10.08 3.91016 11.2001ZM17.9102 14.5001C17.9102 14.7762 17.6863 15.0001 17.4102 15.0001C17.134 15.0001 16.9102 14.7762 16.9102 14.5001C16.9102 14.2239 17.134 14.0001 17.4102 14.0001C17.6863 14.0001 17.9102 14.2239 17.9102 14.5001Z" stroke="url(#paint0_linear_623_1475)" stroke-width="2" stroke-linecap="round" stroke-linejoin="round"/>
</g>
<defs>
<linearGradient id="paint0_linear_623_1475" x1="12.9102" y1="2.56812" x2="12.9102" y2="21.0001" gradientUnits="userSpaceOnUse">
<stop offset="0.329" stop-color="#02FFB3"/>
<stop offset="0.754" stop-color="#00A3FF"/>
</linearGradient>
</defs>
</svg>
