<svg xmlns:xlink="http://www.w3.org/1999/xlink" xmlns="http://www.w3.org/2000/svg" width="184" height="57" viewBox="0 0 184 57" fill="none">
<path d="M182.48 50.5276C182.48 53.5119 180.144 55.9293 177.255 55.9293H6.25139C3.36338 55.9293 1.01917 53.5119 1.01917 50.5276V7.45119C1.01917 4.46829 3.36338 2.04248 6.25139 2.04248H177.254C180.144 2.04248 182.479 4.46829 182.479 7.45119L182.48 50.5276Z" fill="black"/>
<path d="M176.704 2.10759C179.85 2.10759 182.411 4.74484 182.411 7.98584V49.9858C182.411 53.2268 179.85 55.8641 176.704 55.8641H6.7963C3.64961 55.8641 1.08911 53.2268 1.08911 49.9858V7.98584C1.08911 4.74484 3.64961 2.10759 6.7963 2.10759H176.704ZM176.704 0.985844H6.7963C3.06003 0.985844 0 4.13759 0 7.98584V49.9858C0 53.8341 3.06003 56.9858 6.7963 56.9858H176.704C180.44 56.9858 183.5 53.8341 183.5 49.9858V7.98584C183.5 4.13759 180.44 0.985844 176.704 0.985844Z" fill="#A6A6A6"/>
<path d="M40.9496 28.6835C40.9102 24.1713 44.5367 21.9761 44.7025 21.8739C42.6487 18.7897 39.4653 18.3683 38.3466 18.3347C35.673 18.0449 33.0795 19.9825 31.7175 19.9825C30.3284 19.9825 28.231 18.3627 25.9706 18.4103C23.0618 18.4565 20.3405 20.1911 18.8481 22.8847C15.768 28.3769 18.0651 36.4479 21.0161 40.8873C22.4922 43.0615 24.2171 45.4891 26.4749 45.4037C28.6837 45.3099 29.5087 43.9533 32.1742 43.9533C34.8153 43.9533 35.5901 45.4037 37.8927 45.3491C40.2632 45.3099 41.7557 43.1651 43.1802 40.9713C44.886 38.4793 45.5711 36.0251 45.5983 35.8991C45.5426 35.8795 40.9945 34.0917 40.9496 28.6835Z" fill="white"/>
<path d="M36.6 15.4143C37.788 13.8841 38.6008 11.8023 38.3752 9.6897C36.6557 9.7681 34.5054 10.9147 33.2671 12.4113C32.1715 13.7301 31.1929 15.8917 31.4457 17.9245C33.3772 18.0729 35.3604 16.9207 36.6 15.4143Z" fill="white"/>
<path d="M72.9184 45.0917H69.8316L68.1406 39.6191H62.2632L60.6525 45.0917H57.6472L63.4702 26.4604H67.0668L72.9184 45.0917ZM67.6309 37.3231L66.1017 32.4581C65.94 31.9611 65.6369 30.7907 65.1897 28.9482H65.1353C64.9572 29.7407 64.6704 30.9111 64.2763 32.4581L62.7743 37.3231H67.6309V37.3231Z" fill="white"/>
<path d="M87.8928 38.2091C87.8928 40.4939 87.2934 42.2999 86.0945 43.6257C85.0207 44.806 83.6873 45.3954 82.0956 45.3954C80.3775 45.3954 79.1433 44.7597 78.3916 43.4885H78.3372V50.5656H75.4393V36.0797C75.4393 34.6433 75.4026 33.1691 75.3319 31.6571H77.8805L78.0423 33.7865H78.0966C79.0631 32.1821 80.5297 31.3813 82.4979 31.3813C84.0366 31.3813 85.3211 32.0071 86.3487 33.2601C87.379 34.5145 87.8928 36.1637 87.8928 38.2091ZM84.9405 38.3183C84.9405 37.0107 84.6551 35.9327 84.0815 35.0843C83.4548 34.1995 82.6135 33.7571 81.5587 33.7571C80.8437 33.7571 80.194 34.0035 79.6136 34.4893C79.0318 34.9793 78.6512 35.6191 78.4732 36.4115C78.3834 36.7811 78.3386 37.0835 78.3386 37.3215V39.5615C78.3386 40.5387 78.6295 41.3633 79.2112 42.0367C79.793 42.7101 80.5487 43.0461 81.4785 43.0461C82.57 43.0461 83.4195 42.6121 84.0271 41.7469C84.636 40.8803 84.9405 39.7379 84.9405 38.3183Z" fill="white"/>
<path d="M102.893 38.2091C102.893 40.4939 102.294 42.2999 101.094 43.6257C100.021 44.806 98.6877 45.3954 97.0961 45.3954C95.378 45.3954 94.1437 44.7597 93.3934 43.4885H93.3391V50.5656H90.4411V36.0797C90.4411 34.6433 90.4044 33.1691 90.3337 31.6571H92.8824L93.0441 33.7865H93.0985C94.0635 32.1821 95.5302 31.3813 97.4998 31.3813C99.0371 31.3813 100.322 32.0071 101.352 33.2601C102.378 34.5145 102.893 36.1637 102.893 38.2091ZM99.941 38.3183C99.941 37.0107 99.6542 35.9327 99.0806 35.0843C98.454 34.1995 97.6153 33.7571 96.5592 33.7571C95.8428 33.7571 95.1945 34.0035 94.6127 34.4893C94.0309 34.9793 93.6517 35.6191 93.4736 36.4115C93.3853 36.7811 93.3391 37.0835 93.3391 37.3215V39.5615C93.3391 40.5387 93.6299 41.3633 94.209 42.0367C94.7907 42.7087 95.5465 43.0461 96.479 43.0461C97.5704 43.0461 98.42 42.6121 99.0276 41.7469C99.6365 40.8803 99.941 39.7379 99.941 38.3183Z" fill="white"/>
<path d="M119.667 39.8667C119.667 41.4515 119.133 42.7409 118.061 43.7363C116.882 44.8241 115.242 45.3673 113.134 45.3673C111.187 45.3673 109.627 44.9809 108.445 44.2067L109.117 41.7189C110.389 42.5113 111.785 42.9089 113.306 42.9089C114.398 42.9089 115.247 42.6541 115.857 42.1473C116.465 41.6405 116.768 40.9601 116.768 40.1117C116.768 39.3557 116.518 38.7187 116.017 38.2021C115.518 37.6855 114.684 37.2053 113.521 36.7615C110.354 35.5449 108.772 33.7627 108.772 31.4191C108.772 29.8875 109.326 28.6317 110.437 27.6545C111.543 26.6759 113.019 26.1873 114.865 26.1873C116.511 26.1873 117.879 26.4827 118.97 27.0721L118.246 29.5053C117.226 28.9341 116.074 28.6485 114.784 28.6485C113.764 28.6485 112.968 28.9075 112.397 29.4227C111.914 29.8833 111.672 30.4447 111.672 31.1097C111.672 31.8461 111.948 32.4551 112.503 32.9339C112.985 33.3763 113.862 33.8551 115.134 34.3717C116.691 35.0171 117.834 35.7717 118.569 36.6369C119.302 37.4993 119.667 38.5787 119.667 39.8667Z" fill="white"/>
<path d="M129.249 33.897H126.055V40.4196C126.055 42.0786 126.618 42.9074 127.746 42.9074C128.264 42.9074 128.693 42.8612 129.033 42.7688L129.113 45.0354C128.542 45.2552 127.791 45.3658 126.86 45.3658C125.715 45.3658 124.821 45.006 124.175 44.2878C123.532 43.5682 123.209 42.3614 123.209 40.666V33.8942H121.306V31.6542H123.209V29.1944L126.055 28.3096V31.6542H129.249V33.897Z" fill="white"/>
<path d="M143.661 38.2636C143.661 40.3286 143.088 42.024 141.943 43.3498C140.743 44.7148 139.15 45.3952 137.164 45.3952C135.25 45.3952 133.726 44.7414 132.59 43.4338C131.454 42.1262 130.886 40.4756 130.886 38.4862C130.886 36.4044 131.47 34.6992 132.643 33.3734C133.813 32.0462 135.393 31.3826 137.379 31.3826C139.293 31.3826 140.833 32.0364 141.995 33.3454C143.107 34.6152 143.661 36.2546 143.661 38.2636ZM140.655 38.3602C140.655 37.1212 140.398 36.0586 139.877 35.1724C139.27 34.1 138.401 33.5652 137.275 33.5652C136.111 33.5652 135.226 34.1014 134.618 35.1724C134.098 36.06 133.841 37.1394 133.841 38.4162C133.841 39.6552 134.098 40.7178 134.618 41.6026C135.245 42.675 136.12 43.2098 137.25 43.2098C138.356 43.2098 139.225 42.6638 139.851 41.5746C140.385 40.6716 140.655 39.5978 140.655 38.3602Z" fill="white"/>
<path d="M153.081 34.2821C152.794 34.2275 152.488 34.1995 152.167 34.1995C151.148 34.1995 150.36 34.5957 149.805 35.3895C149.322 36.0895 149.08 36.9743 149.08 38.0425V45.0915H146.184L146.211 35.8879C146.211 34.3395 146.174 32.9297 146.102 31.6585H148.626L148.732 34.2289H148.813C149.119 33.3455 149.601 32.6343 150.262 32.1009C150.907 31.6207 151.605 31.3813 152.356 31.3813C152.624 31.3813 152.866 31.4009 153.081 31.4359V34.2821Z" fill="white"/>
<path d="M166.041 37.7388C166.041 38.2736 166.007 38.7244 165.935 39.0926H157.241C157.275 40.4198 157.695 41.4348 158.503 42.1348C159.235 42.7606 160.183 43.0742 161.346 43.0742C162.633 43.0742 163.808 42.8628 164.864 42.4386L165.318 44.5106C164.084 45.065 162.627 45.3408 160.945 45.3408C158.923 45.3408 157.335 44.7276 156.18 43.5026C155.027 42.2776 154.449 40.6326 154.449 38.569C154.449 36.5432 154.986 34.8562 156.061 33.5108C157.187 32.0744 158.708 31.3562 160.622 31.3562C162.502 31.3562 163.925 32.0744 164.891 33.5108C165.656 34.6518 166.041 36.063 166.041 37.7388ZM163.278 36.9646C163.297 36.0798 163.108 35.3154 162.715 34.67C162.213 33.8398 161.443 33.4254 160.406 33.4254C159.458 33.4254 158.688 33.83 158.099 34.642C157.616 35.2874 157.33 36.0616 157.241 36.9632H163.278V36.9646Z" fill="white"/>
<path d="M66.6715 14.998C66.6715 16.6458 66.1917 17.8862 65.2334 18.7192C64.3458 19.4878 63.0844 19.8728 61.4506 19.8728C60.6404 19.8728 59.9472 19.8364 59.3668 19.7636V10.7602C60.1239 10.6342 60.9395 10.5698 61.8203 10.5698C63.3766 10.5698 64.5497 10.9184 65.3408 11.6156C66.227 12.4038 66.6715 13.5308 66.6715 14.998ZM65.1695 15.0386C65.1695 13.9704 64.8949 13.1514 64.3458 12.5802C63.7967 12.0104 62.9947 11.7248 61.9385 11.7248C61.49 11.7248 61.108 11.7556 60.7913 11.82V18.6646C60.9667 18.6926 61.2875 18.7052 61.7537 18.7052C62.8438 18.7052 63.6852 18.393 64.2778 17.7686C64.8705 17.1442 65.1695 16.2342 65.1695 15.0386Z" fill="white"/>
<path d="M74.6341 16.4377C74.6341 17.4527 74.3527 18.2843 73.79 18.9367C73.2001 19.6073 72.4185 19.9419 71.4426 19.9419C70.502 19.9419 69.753 19.6213 69.1943 18.9773C68.637 18.3347 68.3584 17.5241 68.3584 16.5469C68.3584 15.5249 68.6452 14.6863 69.2215 14.0353C69.7979 13.3843 70.5726 13.0581 71.5486 13.0581C72.4892 13.0581 73.2449 13.3787 73.8172 14.0213C74.3609 14.6457 74.6341 15.4521 74.6341 16.4377ZM73.1566 16.4853C73.1566 15.8763 73.0288 15.3541 72.7746 14.9187C72.4756 14.3923 72.0502 14.1291 71.4969 14.1291C70.9247 14.1291 70.4897 14.3923 70.1907 14.9187C69.9351 15.3541 69.8087 15.8847 69.8087 16.5119C69.8087 17.1209 69.9365 17.6431 70.1907 18.0785C70.4992 18.6049 70.9288 18.8681 71.4833 18.8681C72.027 18.8681 72.4539 18.6007 72.761 18.0645C73.0247 17.6207 73.1566 17.0943 73.1566 16.4853Z" fill="white"/>
<path d="M85.313 13.1924L83.3081 19.792H82.0032L81.1727 16.9262C80.962 16.2108 80.7908 15.4996 80.6576 14.794H80.6317C80.508 15.5192 80.3368 16.229 80.1166 16.9262L79.2344 19.792H77.9146L76.0293 13.1924H77.4932L78.2177 16.3298C78.393 17.0718 78.5371 17.7788 78.6527 18.448H78.6785C78.7845 17.8964 78.9599 17.1936 79.2072 16.3438L80.1166 13.1938H81.2774L82.1487 16.2766C82.3594 17.0284 82.5306 17.7522 82.6625 18.4494H82.7019C82.7984 17.7704 82.9438 17.0466 83.1369 16.2766L83.9144 13.1938H85.313V13.1924Z" fill="white"/>
<path d="M92.697 19.7922H91.2725V16.0122C91.2725 14.8474 90.843 14.265 89.9812 14.265C89.5585 14.265 89.2173 14.4246 88.9523 14.7452C88.6899 15.0658 88.5567 15.4438 88.5567 15.8764V19.7908H87.1322V15.0784C87.1322 14.4988 87.1145 13.8702 87.0806 13.1898H88.3324L88.399 14.2216H88.4385C88.6043 13.901 88.8517 13.6364 89.1765 13.425C89.5626 13.1786 89.9948 13.054 90.4678 13.054C91.0659 13.054 91.5634 13.2528 91.9589 13.6518C92.451 14.1404 92.697 14.8698 92.697 15.8386V19.7922V19.7922Z" fill="white"/>
<path d="M96.6275 19.7921H95.2043V10.1643H96.6275V19.7921Z" fill="white"/>
<path d="M105.012 16.4377C105.012 17.4527 104.731 18.2843 104.168 18.9367C103.578 19.6073 102.795 19.9419 101.821 19.9419C100.879 19.9419 100.13 19.6213 99.5726 18.9773C99.0153 18.3347 98.7367 17.5241 98.7367 16.5469C98.7367 15.5249 99.0235 14.6863 99.5998 14.0353C100.176 13.3843 100.951 13.0581 101.926 13.0581C102.867 13.0581 103.622 13.3787 104.195 14.0213C104.739 14.6457 105.012 15.4521 105.012 16.4377ZM103.534 16.4853C103.534 15.8763 103.406 15.3541 103.152 14.9187C102.854 14.3923 102.427 14.1291 101.875 14.1291C101.302 14.1291 100.867 14.3923 100.569 14.9187C100.313 15.3541 100.187 15.8847 100.187 16.5119C100.187 17.1209 100.315 17.6431 100.569 18.0785C100.878 18.6049 101.307 18.8681 101.862 18.8681C102.405 18.8681 102.831 18.6007 103.138 18.0645C103.403 17.6207 103.534 17.0943 103.534 16.4853Z" fill="white"/>
<path d="M111.906 19.7921H110.627L110.521 19.0319H110.482C110.044 19.6381 109.42 19.9419 108.61 19.9419C108.005 19.9419 107.516 19.7417 107.147 19.3441C106.813 18.9829 106.646 18.5335 106.646 18.0001C106.646 17.1937 106.972 16.5791 107.629 16.1535C108.284 15.7279 109.205 15.5193 110.392 15.5291V15.4059C110.392 14.5365 109.949 14.1025 109.061 14.1025C108.429 14.1025 107.872 14.2663 107.391 14.5911L107.101 13.6279C107.697 13.2485 108.432 13.0581 109.299 13.0581C110.974 13.0581 111.814 13.9681 111.814 15.7881V18.2185C111.814 18.8779 111.845 19.4029 111.906 19.7921ZM110.427 17.5241V16.5063C108.856 16.4783 108.07 16.9221 108.07 17.8363C108.07 18.1807 108.16 18.4383 108.344 18.6105C108.527 18.7827 108.761 18.8681 109.04 18.8681C109.352 18.8681 109.644 18.7659 109.911 18.5629C110.179 18.3585 110.343 18.0995 110.404 17.7817C110.419 17.7103 110.427 17.6235 110.427 17.5241Z" fill="white"/>
<path d="M120.001 19.7921H118.736L118.67 18.7323H118.63C118.227 19.5387 117.539 19.9419 116.573 19.9419C115.8 19.9419 115.158 19.6297 114.648 19.0053C114.138 18.3809 113.884 17.5703 113.884 16.5749C113.884 15.5067 114.16 14.6415 114.714 13.9807C115.251 13.3647 115.909 13.0567 116.692 13.0567C117.553 13.0567 118.155 13.3549 118.497 13.9527H118.524V10.1643H119.95V18.0141C119.95 18.6567 119.967 19.2489 120.001 19.7921ZM118.524 17.0089V15.9085C118.524 15.7181 118.511 15.5641 118.485 15.4465C118.405 15.0937 118.232 14.7969 117.97 14.5575C117.705 14.3181 117.385 14.1977 117.017 14.1977C116.486 14.1977 116.07 14.4147 115.764 14.8501C115.461 15.2855 115.307 15.8413 115.307 16.5203C115.307 17.1727 115.452 17.7019 115.745 18.1093C116.053 18.5433 116.469 18.7603 116.99 18.7603C117.457 18.7603 117.831 18.5797 118.115 18.2171C118.39 17.8825 118.524 17.4793 118.524 17.0089Z" fill="white"/>
<path d="M132.185 16.4377C132.185 17.4527 131.903 18.2843 131.34 18.9367C130.75 19.6073 129.97 19.9419 128.993 19.9419C128.054 19.9419 127.305 19.6213 126.745 18.9773C126.187 18.3347 125.909 17.5241 125.909 16.5469C125.909 15.5249 126.196 14.6863 126.772 14.0353C127.348 13.3843 128.123 13.0581 129.1 13.0581C130.04 13.0581 130.797 13.3787 131.368 14.0213C131.911 14.6457 132.185 15.4521 132.185 16.4377ZM130.708 16.4853C130.708 15.8763 130.581 15.3541 130.326 14.9187C130.026 14.3923 129.602 14.1291 129.047 14.1291C128.476 14.1291 128.041 14.3923 127.741 14.9187C127.486 15.3541 127.359 15.8847 127.359 16.5119C127.359 17.1209 127.487 17.6431 127.741 18.0785C128.05 18.6049 128.479 18.8681 129.034 18.8681C129.577 18.8681 130.006 18.6007 130.313 18.0645C130.575 17.6207 130.708 17.0943 130.708 16.4853Z" fill="white"/>
<path d="M139.843 19.7922H138.42V16.0122C138.42 14.8474 137.991 14.265 137.128 14.265C136.705 14.265 136.364 14.4246 136.1 14.7452C135.836 15.0658 135.704 15.4438 135.704 15.8764V19.7908H134.279V15.0784C134.279 14.4988 134.262 13.8702 134.228 13.1898H135.479L135.545 14.2216H135.585C135.752 13.901 135.999 13.6364 136.323 13.425C136.71 13.1786 137.141 13.054 137.616 13.054C138.212 13.054 138.71 13.2528 139.105 13.6518C139.599 14.1404 139.843 14.8698 139.843 15.8386V19.7922V19.7922Z" fill="white"/>
<path d="M149.43 14.2917H147.862V17.4977C147.862 18.3125 148.141 18.7199 148.692 18.7199C148.948 18.7199 149.16 18.6975 149.327 18.6513L149.364 19.7643C149.083 19.8735 148.713 19.9281 148.257 19.9281C147.695 19.9281 147.257 19.7517 146.94 19.3989C146.622 19.0461 146.465 18.4525 146.465 17.6195V14.2917H145.528V13.1927H146.465V11.9831L147.861 11.5491V13.1913H149.429V14.2917H149.43Z" fill="white"/>
<path d="M156.972 19.7921H155.546V16.0401C155.546 14.8571 155.117 14.2649 154.256 14.2649C153.596 14.2649 153.144 14.6079 152.897 15.2939C152.855 15.4381 152.83 15.6145 152.83 15.8217V19.7907H151.407V10.1643H152.83V14.1417H152.858C153.306 13.4179 153.949 13.0567 154.782 13.0567C155.372 13.0567 155.86 13.2555 156.248 13.6545C156.73 14.1515 156.972 14.8907 156.972 15.8679V19.7921V19.7921Z" fill="white"/>
<path d="M164.749 16.18C164.749 16.4432 164.73 16.6644 164.696 16.845H160.424C160.443 17.4974 160.647 17.9944 161.042 18.3388C161.404 18.6468 161.87 18.8008 162.441 18.8008C163.073 18.8008 163.65 18.6972 164.169 18.4886L164.392 19.5078C163.784 19.7794 163.069 19.9152 162.241 19.9152C161.249 19.9152 160.467 19.6142 159.902 19.0122C159.334 18.4102 159.052 17.6024 159.052 16.5888C159.052 15.5934 159.315 14.7646 159.844 14.1038C160.395 13.3982 161.142 13.0454 162.084 13.0454C163.005 13.0454 163.705 13.3982 164.178 14.1038C164.56 14.6638 164.749 15.3568 164.749 16.18ZM163.39 15.8006C163.401 15.3652 163.307 14.99 163.114 14.6736C162.867 14.2662 162.49 14.0618 161.98 14.0618C161.515 14.0618 161.136 14.2606 160.847 14.6596C160.61 14.9774 160.47 15.3568 160.424 15.8006H163.39Z" fill="white"/>
</svg>