<?xml version="1.0" encoding="utf-8"?>
<!-- Generator: Adobe Illustrator 16.0.0, SVG Export Plug-In . SVG Version: 6.00 Build 0)  -->
<!DOCTYPE svg PUBLIC "-//W3C//DTD SVG 1.1//EN" "http://www.w3.org/Graphics/SVG/1.1/DTD/svg11.dtd">
<svg version="1.1" id="Layer_1" xmlns="http://www.w3.org/2000/svg" xmlns:xlink="http://www.w3.org/1999/xlink" x="0px" y="0px"
	 width="162.917px" height="136.5px" viewBox="0 0 162.917 136.5" enable-background="new 0 0 162.917 136.5" xml:space="preserve">
<g>
	<polygon fill="#69B20B" points="5.157,120.114 8.724,120.114 8.724,125.893 14.003,125.893 14.003,120.114 17.56,120.114 
		17.56,135.075 14.003,135.075 14.003,126.393 12.25,129.124 8.724,129.124 8.724,135.075 5.157,135.075 	"/>
	<path fill="#69B20B" d="M29.199,130.652h-7.145c0.292,0.734,0.649,1.187,1.07,1.356c0.428,0.146,1.118,0.223,2.069,0.223h3.873
		l-1.56,2.844h-3.444h-0.713c-1.209,0-2.093-0.154-2.65-0.458c-0.571-0.32-1.016-0.73-1.335-1.233
		c-0.333-0.53-0.572-1.15-0.718-1.859c-0.146-0.711-0.22-1.439-0.22-2.187c0-0.333,0.007-0.636,0.021-0.908
		c0.014-0.271,0.047-0.536,0.102-0.794c0.055-0.259,0.128-0.52,0.22-0.785c0.091-0.265,0.222-0.558,0.392-0.876
		c0.319-0.625,0.89-1.162,1.712-1.61c0.802-0.428,1.627-0.643,2.477-0.643c0.075-0.014,0.173-0.021,0.295-0.021h0.296
		c0.414,0,0.833,0.032,1.258,0.092c0.425,0.063,0.829,0.165,1.212,0.312c0.384,0.146,0.736,0.33,1.055,0.555s0.591,0.49,0.815,0.795
		c0.441,0.626,0.715,1.339,0.82,2.14c0.105,0.802,0.159,1.764,0.159,2.887L29.199,130.652z M24.837,126.576
		c-0.089-0.055-0.22-0.096-0.393-0.123c-0.173-0.027-0.341-0.04-0.504-0.04c-0.558-0.055-1.015,0.094-1.371,0.448
		c-0.357,0.353-0.556,0.814-0.597,1.387h3.76c-0.068-0.511-0.158-0.877-0.27-1.102S25.143,126.731,24.837,126.576"/>
	<path fill="#69B20B" d="M32.114,123.783h4.23c0.794,0,1.483,0.05,2.068,0.147c0.584,0.099,1.094,0.362,1.529,0.79
		c0.428,0.421,0.702,0.964,0.821,1.63c0.118,0.666,0.178,1.458,0.178,2.375v6.35h-3.546v-2.212l-1.55,2.212H35.14h-0.671
		c-0.958,0-1.763-0.094-2.411-0.28c-0.649-0.187-1.106-0.511-1.371-0.973c-0.245-0.477-0.406-0.897-0.485-1.264
		c-0.078-0.367-0.117-0.718-0.117-1.051c0-0.862,0.159-1.593,0.479-2.191c0.333-0.597,0.741-0.983,1.223-1.162
		c0.483-0.175,1.104-0.266,1.865-0.266h0.632h3.109v-0.457c-0.056-0.15-0.108-0.273-0.158-0.372
		c-0.051-0.098-0.128-0.175-0.23-0.229c-0.102-0.056-0.25-0.093-0.448-0.114c-0.197-0.019-0.462-0.029-0.795-0.029h-0.52h-4.576
		L32.114,123.783z M34.906,130.498c-0.278,0-0.498,0.017-0.657,0.048c-0.16,0.03-0.318,0.17-0.474,0.422
		c-0.068,0.109-0.102,0.248-0.102,0.419c0,0.081,0.013,0.169,0.04,0.264c0.028,0.096,0.08,0.189,0.158,0.28
		c0.079,0.091,0.19,0.165,0.336,0.22c0.146,0.055,0.345,0.081,0.596,0.081h2.589v-1.733H34.906z"/>
	<rect x="42.376" y="119.84" fill="#69B20B" width="3.566" height="15.235"/>
	<path fill="#69B20B" d="M51.386,120.043v3.74h1.854v2.925h-1.834v2.691v1.396c0.068,0.611,0.221,0.988,0.459,1.131
		c0.265,0.149,0.529,0.243,0.794,0.279c0.266,0.039,0.571,0.057,0.917,0.057l-1.59,2.895c-0.754,0-1.405-0.056-1.952-0.169
		c-0.547-0.11-0.98-0.326-1.299-0.646c-0.327-0.333-0.558-0.707-0.693-1.122c-0.136-0.407-0.204-1.043-0.204-1.905v-0.54v-4.066
		h-1.529L51.386,120.043z"/>
	<path fill="#69B20B" d="M58.163,119.84v6.155l1.732-2.212h1.377c0.488,0,0.906,0.018,1.252,0.051
		c0.347,0.034,0.649,0.084,0.907,0.147c0.259,0.065,0.478,0.152,0.658,0.26c0.18,0.108,0.348,0.234,0.504,0.377
		c0.292,0.252,0.517,0.563,0.673,0.938c0.136,0.318,0.204,0.884,0.204,1.692v0.753v7.073h-3.567v-5.676v-0.674
		c0-0.761-0.143-1.294-0.428-1.601c-0.285-0.305-0.839-0.444-1.661-0.417h-0.897h-0.754v8.367h-3.567V119.84H58.163z"/>
	<path fill="#69B20B" d="M81.37,120.257l-1.754,3.211h-2.384h-0.418c-0.265,0-0.515,0.009-0.749,0.03
		c-0.234,0.021-0.449,0.048-0.647,0.082c-0.374,0.053-0.618,0.212-0.734,0.478c-0.082,0.253-0.122,0.445-0.122,0.582
		c-0.068,0.292,0.084,0.538,0.458,0.739c0.374,0.199,0.972,0.286,1.793,0.26h0.418h2.273l-1.814,3.302H77.13H76.65
		c-0.835-0.027-1.449,0.091-1.839,0.355c-0.391,0.266-0.565,0.653-0.525,1.163c-0.027,0.448,0.154,0.805,0.545,1.069
		c0.391,0.266,0.983,0.378,1.778,0.337h0.459h3.567v-2.925h-1.671l1.906-3.302h6.859l-1.876,3.302h-1.568v6.236h-9.03
		c-0.809,0-1.576-0.102-2.303-0.305c-0.707-0.226-1.272-0.678-1.697-1.361c-0.424-0.683-0.637-1.51-0.637-2.481
		c0-0.727,0.105-1.333,0.316-1.814c0.108-0.251,0.223-0.465,0.341-0.642c0.119-0.178,0.259-0.336,0.418-0.474
		c0.159-0.139,0.335-0.268,0.529-0.382c0.194-0.117,0.43-0.238,0.708-0.368c-0.584-0.238-1.009-0.465-1.273-0.683
		c-0.279-0.236-0.488-0.585-0.627-1.044c-0.139-0.46-0.208-0.906-0.208-1.341c0-0.454,0.059-0.91,0.178-1.365
		c0.119-0.455,0.369-0.923,0.749-1.407c0.374-0.502,0.926-0.837,1.656-1.003c0.73-0.167,1.618-0.25,2.665-0.25H81.37z"/>
	<polygon fill="#69B20B" points="91.774,120.114 95.361,120.114 97.451,132.782 99.602,120.114 104.82,120.114 107.011,132.588 
		109.161,120.114 112.524,120.114 109.681,135.075 104.484,135.075 102.149,122.509 99.979,135.075 94.547,135.075 	"/>
	<path fill="#69B20B" d="M123.297,130.652h-7.145c0.292,0.734,0.649,1.187,1.07,1.356c0.429,0.146,1.118,0.223,2.069,0.223h3.872
		l-1.559,2.844h-3.445h-0.713c-1.209,0-2.093-0.154-2.65-0.458c-0.571-0.32-1.015-0.73-1.334-1.233
		c-0.334-0.53-0.573-1.15-0.719-1.859c-0.146-0.711-0.22-1.439-0.22-2.187c0-0.333,0.008-0.636,0.02-0.908
		c0.015-0.271,0.048-0.536,0.103-0.794c0.054-0.259,0.128-0.52,0.22-0.785c0.092-0.265,0.222-0.558,0.393-0.876
		c0.318-0.625,0.889-1.162,1.712-1.61c0.801-0.428,1.627-0.643,2.477-0.643c0.074-0.014,0.173-0.021,0.296-0.021h0.294
		c0.416,0,0.835,0.032,1.26,0.092c0.424,0.063,0.828,0.165,1.213,0.312c0.384,0.146,0.735,0.33,1.054,0.555
		c0.32,0.225,0.592,0.49,0.816,0.795c0.44,0.626,0.716,1.339,0.819,2.14c0.104,0.802,0.157,1.764,0.157,2.887L123.297,130.652z
		 M118.936,126.576c-0.089-0.055-0.22-0.096-0.394-0.123c-0.173-0.027-0.341-0.04-0.505-0.04c-0.556-0.055-1.015,0.094-1.37,0.448
		c-0.355,0.353-0.556,0.814-0.596,1.387h3.761c-0.069-0.511-0.158-0.877-0.27-1.102C119.45,126.922,119.241,126.731,118.936,126.576
		"/>
	<path fill="#69B20B" d="M126.212,123.783h4.23c0.793,0,1.483,0.05,2.066,0.147c0.585,0.099,1.095,0.362,1.529,0.79
		c0.429,0.421,0.702,0.964,0.821,1.63s0.179,1.458,0.179,2.375v6.35h-3.547v-2.212l-1.55,2.212h-0.703h-0.673
		c-0.957,0-1.762-0.094-2.409-0.28c-0.649-0.187-1.106-0.511-1.372-0.973c-0.243-0.477-0.404-0.897-0.483-1.264
		c-0.077-0.367-0.117-0.718-0.117-1.051c0-0.862,0.159-1.593,0.479-2.191c0.333-0.597,0.74-0.983,1.223-1.162
		c0.481-0.175,1.104-0.266,1.864-0.266h0.632h3.109v-0.457c-0.055-0.15-0.108-0.273-0.158-0.372
		c-0.051-0.098-0.128-0.175-0.229-0.229c-0.102-0.056-0.252-0.093-0.447-0.114c-0.198-0.019-0.463-0.029-0.795-0.029h-0.521h-4.576
		L126.212,123.783z M129.004,130.498c-0.278,0-0.498,0.017-0.657,0.048c-0.159,0.03-0.317,0.17-0.474,0.422
		c-0.068,0.109-0.103,0.248-0.103,0.419c0,0.081,0.015,0.169,0.042,0.264c0.026,0.096,0.08,0.189,0.157,0.28
		c0.079,0.091,0.19,0.165,0.336,0.22c0.146,0.055,0.345,0.081,0.597,0.081h2.589v-1.733H129.004z"/>
	<rect x="136.475" y="119.84" fill="#69B20B" width="3.567" height="15.235"/>
	<path fill="#69B20B" d="M145.483,120.043v3.74h1.856v2.925h-1.835v2.691v1.396c0.067,0.611,0.221,0.988,0.459,1.131
		c0.266,0.149,0.529,0.243,0.795,0.279c0.265,0.039,0.57,0.057,0.917,0.057l-1.591,2.895c-0.754,0-1.404-0.056-1.951-0.169
		c-0.548-0.11-0.98-0.326-1.3-0.646c-0.326-0.333-0.558-0.707-0.693-1.122c-0.135-0.407-0.203-1.043-0.203-1.905v-0.54v-4.066
		h-1.529L145.483,120.043z"/>
	<path fill="#69B20B" d="M152.26,119.84v6.155l1.735-2.212h1.375c0.489,0,0.906,0.018,1.253,0.051
		c0.346,0.034,0.649,0.084,0.906,0.147c0.259,0.065,0.478,0.152,0.658,0.26c0.181,0.108,0.349,0.234,0.505,0.377
		c0.291,0.252,0.517,0.563,0.672,0.938c0.136,0.318,0.204,0.884,0.204,1.692v0.753v7.073h-3.566v-5.676v-0.674
		c0-0.761-0.143-1.294-0.428-1.601c-0.287-0.305-0.84-0.444-1.663-0.417h-0.896h-0.756v8.367h-3.565V119.84H152.26z"/>
	<path fill="#69B20B" d="M70.427,74.042l-7.503,4.333L70.427,74.042z"/>
	<polygon fill="#69B20B" points="70.427,74.042 70.427,74.042 78.95,69.122 78.95,59.281 38.376,82.705 46.899,87.626 
		62.924,78.375 	"/>
	<polygon fill="#69B20B" points="78.95,69.122 70.427,74.042 70.427,91.37 78.95,96.29 	"/>
	<polygon fill="#69B20B" points="70.427,91.37 61.099,85.984 52.576,90.902 78.95,106.131 78.95,96.29 	"/>
	<path fill="#69B20B" d="M93.269,74.042v8.665V74.042z"/>
	<polygon fill="#69B20B" points="93.269,74.042 93.269,74.042 93.269,64.201 84.746,59.281 84.746,106.131 93.268,101.211 
		93.269,82.707 	"/>
	<polygon fill="#69B20B" points="93.269,64.201 93.269,74.042 108.275,82.707 116.798,77.786 	"/>
	<polygon fill="#69B20B" points="108.274,82.707 98.945,88.093 98.945,97.934 125.319,82.705 116.798,77.786 	"/>
	<path fill="#69B20B" d="M93.269,34.48l7.503-4.332L93.269,34.48z"/>
	<polygon fill="#69B20B" points="93.269,34.48 93.269,34.48 84.746,39.4 84.746,49.241 125.319,25.816 116.798,20.896 
		100.772,30.148 	"/>
	<polygon fill="#69B20B" points="84.746,39.4 93.27,34.48 93.27,17.153 84.746,12.232 	"/>
	<polygon fill="#69B20B" points="93.269,17.153 102.598,22.539 111.12,17.619 84.746,2.392 84.746,12.232 	"/>
	<path fill="#69B20B" d="M104.689,54.261l7.503,4.332L104.689,54.261z"/>
	<polygon fill="#69B20B" points="104.689,54.261 104.689,54.261 96.167,49.341 87.645,54.261 128.218,77.686 128.218,67.846 
		112.192,58.593 	"/>
	<polygon fill="#69B20B" points="96.167,49.341 104.69,54.261 119.695,45.597 119.695,35.757 	"/>
	<polygon fill="#69B20B" points="119.695,45.597 119.695,56.37 128.218,61.29 128.218,30.836 119.695,35.757 	"/>
	<path fill="#69B20B" d="M70.427,34.48v-8.664V34.48z"/>
	<polygon fill="#69B20B" points="70.427,34.48 70.427,34.48 70.427,44.321 78.95,49.241 78.95,2.392 70.427,7.312 70.427,25.816 	
		"/>
	<polygon fill="#69B20B" points="70.427,44.321 70.427,34.48 55.421,25.816 46.899,30.736 	"/>
	<polygon fill="#69B20B" points="55.421,25.816 64.751,20.43 64.751,10.589 38.377,25.816 46.899,30.736 	"/>
	<path fill="#69B20B" d="M59.007,54.261l-7.503-4.332L59.007,54.261z"/>
	<polygon fill="#69B20B" points="59.007,54.261 59.007,54.261 67.53,59.182 76.052,54.261 35.479,30.836 35.479,40.676 
		51.504,49.93 	"/>
	<polygon fill="#69B20B" points="67.53,59.182 59.007,54.261 44.001,62.925 44.001,72.766 	"/>
	<polygon fill="#69B20B" points="44.001,62.925 44.001,52.153 35.479,47.232 35.479,77.686 44.001,72.767 	"/>
</g>
</svg>
