<svg width="32" height="33" viewBox="0 0 32 33" fill="none" xmlns="http://www.w3.org/2000/svg">
<rect y="0.5" width="32" height="32" rx="16" fill="#F4E096"/>
<path d="M16.0916 19.3252L12.8583 22.5586C12.4668 22.9364 11.944 23.1475 11.3999 23.1475C10.8559 23.1475 10.3331 22.9364 9.94161 22.5586C9.74962 22.3673 9.59727 22.1401 9.49332 21.8898C9.38937 21.6396 9.33586 21.3712 9.33586 21.1002C9.33586 20.8293 9.38937 20.5609 9.49332 20.3107C9.59727 20.0604 9.74962 19.8331 9.94161 19.6419L13.1749 16.4086C13.3319 16.2517 13.42 16.0388 13.42 15.8169C13.42 15.595 13.3319 15.3822 13.1749 15.2252C13.018 15.0683 12.8052 14.9802 12.5833 14.9802C12.3614 14.9802 12.1485 15.0683 11.9916 15.2252L8.75828 18.4669C8.10691 19.1759 7.75463 20.1091 7.77501 21.0717C7.79539 22.0343 8.18685 22.9518 8.86764 23.6325C9.54843 24.3133 10.4659 24.7048 11.4285 24.7252C12.3911 24.7456 13.3243 24.3933 14.0333 23.7419L17.2749 20.5086C17.3526 20.4309 17.4143 20.3386 17.4563 20.2371C17.4984 20.1356 17.52 20.0268 17.52 19.9169C17.52 19.807 17.4984 19.6982 17.4563 19.5967C17.4143 19.4952 17.3526 19.4029 17.2749 19.3252C17.1972 19.2475 17.105 19.1859 17.0035 19.1439C16.902 19.1018 16.7932 19.0802 16.6833 19.0802C16.5734 19.0802 16.4646 19.1018 16.3631 19.1439C16.2616 19.1859 16.1693 19.2475 16.0916 19.3252ZM23.2416 9.25857C22.5406 8.56191 21.5924 8.1709 20.6041 8.1709C19.6158 8.1709 18.6676 8.56191 17.9666 9.25857L14.7249 12.4919C14.6472 12.5696 14.5856 12.6618 14.5436 12.7634C14.5015 12.8649 14.4799 12.9737 14.4799 13.0836C14.4799 13.1935 14.5015 13.3023 14.5436 13.4038C14.5856 13.5053 14.6472 13.5975 14.7249 13.6752C14.8026 13.7529 14.8949 13.8146 14.9964 13.8566C15.0979 13.8987 15.2067 13.9203 15.3166 13.9203C15.4265 13.9203 15.5353 13.8987 15.6368 13.8566C15.7383 13.8146 15.8306 13.7529 15.9083 13.6752L19.1416 10.4419C19.5331 10.0641 20.0559 9.85296 20.5999 9.85296C21.144 9.85296 21.6668 10.0641 22.0583 10.4419C22.2503 10.6331 22.4026 10.8604 22.5066 11.1107C22.6105 11.3609 22.664 11.6293 22.664 11.9002C22.664 12.1712 22.6105 12.4396 22.5066 12.6898C22.4026 12.9401 22.2503 13.1673 22.0583 13.3586L18.8249 16.5919C18.7468 16.6694 18.6848 16.7615 18.6425 16.8631C18.6002 16.9646 18.5784 17.0736 18.5784 17.1836C18.5784 17.2936 18.6002 17.4025 18.6425 17.5041C18.6848 17.6056 18.7468 17.6978 18.8249 17.7752C18.9024 17.8533 18.9946 17.9153 19.0961 17.9577C19.1977 18 19.3066 18.0217 19.4166 18.0217C19.5266 18.0217 19.6355 18 19.7371 17.9577C19.8386 17.9153 19.9308 17.8533 20.0083 17.7752L23.2416 14.5336C23.9383 13.8326 24.3293 12.8844 24.3293 11.8961C24.3293 10.9078 23.9383 9.95959 23.2416 9.25857ZM13.3583 19.1419C13.4361 19.2191 13.5285 19.2802 13.63 19.3217C13.7316 19.3632 13.8403 19.3842 13.9499 19.3836C14.0596 19.3842 14.1683 19.3632 14.2699 19.3217C14.3714 19.2802 14.4637 19.2191 14.5416 19.1419L18.6416 15.0419C18.7985 14.885 18.8867 14.6722 18.8867 14.4502C18.8867 14.2283 18.7985 14.0155 18.6416 13.8586C18.4847 13.7017 18.2719 13.6135 18.0499 13.6135C17.828 13.6135 17.6152 13.7017 17.4583 13.8586L13.3583 17.9586C13.2802 18.036 13.2182 18.1282 13.1759 18.2298C13.1336 18.3313 13.1118 18.4402 13.1118 18.5502C13.1118 18.6603 13.1336 18.7692 13.1759 18.8707C13.2182 18.9723 13.2802 19.0644 13.3583 19.1419Z" fill="#04091D"/>
</svg>
