<svg width="867" height="263" viewBox="0 0 867 263" fill="none" xmlns="http://www.w3.org/2000/svg">
<path d="M64.4971 211.329L43.0413 223.718L109.438 262.058V237.281V168.888V144.11L7.2959 203.084L28.7517 215.473L69.0894 192.18L87.982 181.276V224.893L64.4971 211.329Z" fill="url(#paint0_linear_185_1336)"/>
<path d="M159.774 241.414L226.16 203.084L204.714 190.696L145.484 156.499L124.028 144.11V262.058L145.484 249.67V203.084V181.276L183.259 203.084L159.774 216.648V241.414Z" fill="url(#paint1_linear_185_1336)"/>
<path d="M226.16 59.8674L204.714 47.4788L164.366 70.7715L145.484 81.6756V38.0592L168.969 51.6226L190.414 39.234L124.028 0.904053V25.6706V94.0642V118.841L226.16 59.8674Z" fill="url(#paint2_linear_185_1336)"/>
<path d="M233.453 149.171V72.5005L211.998 84.8891L152.767 119.086L131.312 131.475L233.453 190.449V165.671L193.105 142.379L174.212 131.475L211.998 109.666V136.782L233.453 149.171Z" fill="url(#paint3_linear_185_1336)"/>
<path d="M87.982 13.2927V59.8674V81.6756L50.1968 59.8674L73.6924 46.3147V21.5375L7.2959 59.8674L28.7517 72.256L87.982 106.453L109.438 118.841V0.904053L87.982 13.2927Z" fill="url(#paint4_linear_185_1336)"/>
<path d="M0 72.5005V97.2777L40.3377 120.57L59.2304 131.475L21.4558 153.283V126.167L0 113.778V190.449L21.4558 178.06L80.6755 143.863L102.131 131.475L0 72.5005Z" fill="url(#paint5_linear_185_1336)"/>
<path d="M284.783 203.128V59.5711H315.134V118.802H376.749V59.5711H407.03V203.128H376.749V143.826H315.134V203.128H284.783ZM432.054 203.128V59.5711H528.787V84.5954H462.406V118.802H523.81V143.826H462.406V178.103H529.067V203.128H432.054ZM585.232 203.128L544.155 59.5711H577.311L601.073 159.318H602.265L628.481 59.5711H656.87L683.016 159.528H684.277L708.04 59.5711H741.195L700.119 203.128H670.538L643.201 109.269H642.08L614.812 203.128H585.232ZM757.44 203.128V59.5711H854.172V84.5954H787.792V118.802H849.196V143.826H787.792V178.103H854.453V203.128H757.44Z" fill="url(#paint6_linear_185_1336)"/>
<defs>
<linearGradient id="paint0_linear_185_1336" x1="32.8293" y1="158.857" x2="134.967" y2="217.826" gradientUnits="userSpaceOnUse">
<stop offset="0.0309" stop-color="#916A3A"/>
<stop offset="0.0879" stop-color="#A17B44"/>
<stop offset="0.2005" stop-color="#CAA85E"/>
<stop offset="0.2538" stop-color="#DFBF6B"/>
<stop offset="0.6681" stop-color="#F6E49A"/>
<stop offset="0.696" stop-color="#E6D18B"/>
<stop offset="0.759" stop-color="#C7AB6E"/>
<stop offset="0.8217" stop-color="#AF8D57"/>
<stop offset="0.8833" stop-color="#9E7846"/>
<stop offset="0.9434" stop-color="#936B3C"/>
<stop offset="1" stop-color="#906739"/>
</linearGradient>
<linearGradient id="paint1_linear_185_1336" x1="98.4922" y1="188.342" x2="200.63" y2="247.311" gradientUnits="userSpaceOnUse">
<stop offset="0.0309" stop-color="#916A3A"/>
<stop offset="0.0879" stop-color="#A17B44"/>
<stop offset="0.2005" stop-color="#CAA85E"/>
<stop offset="0.2538" stop-color="#DFBF6B"/>
<stop offset="0.6681" stop-color="#F6E49A"/>
<stop offset="0.696" stop-color="#E6D18B"/>
<stop offset="0.759" stop-color="#C7AB6E"/>
<stop offset="0.8217" stop-color="#AF8D57"/>
<stop offset="0.8833" stop-color="#9E7846"/>
<stop offset="0.9434" stop-color="#936B3C"/>
<stop offset="1" stop-color="#906739"/>
</linearGradient>
<linearGradient id="paint2_linear_185_1336" x1="98.4905" y1="45.1271" x2="200.63" y2="104.097" gradientUnits="userSpaceOnUse">
<stop offset="0.0309" stop-color="#916A3A"/>
<stop offset="0.0879" stop-color="#A17B44"/>
<stop offset="0.2005" stop-color="#CAA85E"/>
<stop offset="0.2538" stop-color="#DFBF6B"/>
<stop offset="0.6681" stop-color="#F6E49A"/>
<stop offset="0.696" stop-color="#E6D18B"/>
<stop offset="0.759" stop-color="#C7AB6E"/>
<stop offset="0.8217" stop-color="#AF8D57"/>
<stop offset="0.8833" stop-color="#9E7846"/>
<stop offset="0.9434" stop-color="#936B3C"/>
<stop offset="1" stop-color="#906739"/>
</linearGradient>
<linearGradient id="paint3_linear_185_1336" x1="156.846" y1="87.2488" x2="258.983" y2="146.218" gradientUnits="userSpaceOnUse">
<stop offset="0.0309" stop-color="#916A3A"/>
<stop offset="0.0879" stop-color="#A17B44"/>
<stop offset="0.2005" stop-color="#CAA85E"/>
<stop offset="0.2538" stop-color="#DFBF6B"/>
<stop offset="0.6681" stop-color="#F6E49A"/>
<stop offset="0.696" stop-color="#E6D18B"/>
<stop offset="0.759" stop-color="#C7AB6E"/>
<stop offset="0.8217" stop-color="#AF8D57"/>
<stop offset="0.8833" stop-color="#9E7846"/>
<stop offset="0.9434" stop-color="#936B3C"/>
<stop offset="1" stop-color="#906739"/>
</linearGradient>
<linearGradient id="paint4_linear_185_1336" x1="32.8274" y1="15.6428" x2="134.967" y2="74.6132" gradientUnits="userSpaceOnUse">
<stop offset="0.0309" stop-color="#916A3A"/>
<stop offset="0.0879" stop-color="#A17B44"/>
<stop offset="0.2005" stop-color="#CAA85E"/>
<stop offset="0.2538" stop-color="#DFBF6B"/>
<stop offset="0.6681" stop-color="#F6E49A"/>
<stop offset="0.696" stop-color="#E6D18B"/>
<stop offset="0.759" stop-color="#C7AB6E"/>
<stop offset="0.8217" stop-color="#AF8D57"/>
<stop offset="0.8833" stop-color="#9E7846"/>
<stop offset="0.9434" stop-color="#936B3C"/>
<stop offset="1" stop-color="#906739"/>
</linearGradient>
<linearGradient id="paint5_linear_185_1336" x1="-25.5388" y1="116.733" x2="76.599" y2="175.702" gradientUnits="userSpaceOnUse">
<stop offset="0.0309" stop-color="#916A3A"/>
<stop offset="0.0879" stop-color="#A17B44"/>
<stop offset="0.2005" stop-color="#CAA85E"/>
<stop offset="0.2538" stop-color="#DFBF6B"/>
<stop offset="0.6681" stop-color="#F6E49A"/>
<stop offset="0.696" stop-color="#E6D18B"/>
<stop offset="0.759" stop-color="#C7AB6E"/>
<stop offset="0.8217" stop-color="#AF8D57"/>
<stop offset="0.8833" stop-color="#9E7846"/>
<stop offset="0.9434" stop-color="#936B3C"/>
<stop offset="1" stop-color="#906739"/>
</linearGradient>
<linearGradient id="paint6_linear_185_1336" x1="123.786" y1="101.754" x2="335.218" y2="452.127" gradientUnits="userSpaceOnUse">
<stop offset="0.0309" stop-color="#916A3A"/>
<stop offset="0.0879" stop-color="#A17B44"/>
<stop offset="0.2005" stop-color="#CAA85E"/>
<stop offset="0.2538" stop-color="#DFBF6B"/>
<stop offset="0.6681" stop-color="#F6E49A"/>
<stop offset="0.696" stop-color="#E6D18B"/>
<stop offset="0.759" stop-color="#C7AB6E"/>
<stop offset="0.8217" stop-color="#AF8D57"/>
<stop offset="0.8833" stop-color="#9E7846"/>
<stop offset="0.9434" stop-color="#936B3C"/>
<stop offset="1" stop-color="#906739"/>
</linearGradient>
</defs>
</svg>
