<svg width="20" height="26" viewBox="0 0 20 26" fill="none" xmlns="http://www.w3.org/2000/svg">
<g id="Group 141">
<path id="Vector" d="M2.24109 25.75H17.1825C18.4183 25.75 19.4237 24.7446 19.4237 23.5088V7.7207H14.1942C12.9584 7.7207 11.953 6.71534 11.953 5.47949V0.25H2.24109C1.00524 0.25 -0.00012207 1.25536 -0.00012207 2.49121V23.5088C-0.00012207 24.7446 1.00524 25.75 2.24109 25.75ZM5.22937 10.7588H14.1942C14.6071 10.7588 14.9413 11.0929 14.9413 11.5059C14.9413 11.9188 14.6071 12.2529 14.1942 12.2529H5.22937C4.81644 12.2529 4.4823 11.9188 4.4823 11.5059C4.4823 11.0929 4.81644 10.7588 5.22937 10.7588ZM5.22937 13.7471H14.1942C14.6071 13.7471 14.9413 14.0812 14.9413 14.4941C14.9413 14.9071 14.6071 15.2412 14.1942 15.2412H5.22937C4.81644 15.2412 4.4823 14.9071 4.4823 14.4941C4.4823 14.0812 4.81644 13.7471 5.22937 13.7471ZM5.22937 16.7353H14.1942C14.6071 16.7353 14.9413 17.0695 14.9413 17.4824C14.9413 17.8953 14.6071 18.2295 14.1942 18.2295H5.22937C4.81644 18.2295 4.4823 17.8953 4.4823 17.4824C4.4823 17.0695 4.81644 16.7353 5.22937 16.7353ZM5.22937 19.7236H11.2059C11.6189 19.7236 11.953 20.0578 11.953 20.4707C11.953 20.8836 11.6189 21.2178 11.2059 21.2178H5.22937C4.81644 21.2178 4.4823 20.8836 4.4823 20.4707C4.4823 20.0578 4.81644 19.7236 5.22937 19.7236Z" fill="white"/>
<path id="Vector_2" d="M14.1942 6.22633H18.986L13.4471 0.6875V5.47926C13.4471 5.89144 13.782 6.22633 14.1942 6.22633Z" fill="white"/>
</g>
</svg>
