<svg width="30" height="30" viewBox="0 0 30 30" fill="none" xmlns="http://www.w3.org/2000/svg">
<g id="streamline:instagram-solid">
<path id="Vector" fill-rule="evenodd" clip-rule="evenodd" d="M7.26414 1.6864C5.78461 1.6864 4.36564 2.274 3.31924 3.31999C2.27285 4.36598 1.68471 5.78472 1.68414 7.26426V22.1443C1.68414 23.6242 2.27203 25.0435 3.31849 26.0899C4.36494 27.1364 5.78424 27.7243 7.26414 27.7243H22.1441C23.6237 27.7237 25.0424 27.1355 26.0884 26.0892C27.1344 25.0428 27.722 23.6238 27.722 22.1443V7.26426C27.7214 5.78509 27.1336 4.36667 26.0877 3.32074C25.0417 2.27482 23.6233 1.68697 22.1441 1.6864H7.26414ZM23.7491 7.27283C23.7491 7.69907 23.5798 8.10785 23.2784 8.40925C22.977 8.71065 22.5682 8.87997 22.142 8.87997C21.7158 8.87997 21.307 8.71065 21.0056 8.40925C20.7042 8.10785 20.5349 7.69907 20.5349 7.27283C20.5349 6.84659 20.7042 6.43781 21.0056 6.13641C21.307 5.83501 21.7158 5.66569 22.142 5.66569C22.5682 5.66569 22.977 5.83501 23.2784 6.13641C23.5798 6.43781 23.7491 6.84659 23.7491 7.27283ZM14.7063 10.2471C13.5242 10.2471 12.3905 10.7167 11.5546 11.5526C10.7187 12.3885 10.2491 13.5221 10.2491 14.7043C10.2491 15.8864 10.7187 17.0201 11.5546 17.8559C12.3905 18.6918 13.5242 19.1614 14.7063 19.1614C15.8884 19.1614 17.0221 18.6918 17.858 17.8559C18.6938 17.0201 19.1634 15.8864 19.1634 14.7043C19.1634 13.5221 18.6938 12.3885 17.858 11.5526C17.0221 10.7167 15.8884 10.2471 14.7063 10.2471ZM8.10414 14.7043C8.10414 12.9538 8.7995 11.2751 10.0372 10.0374C11.275 8.79961 12.9537 8.10426 14.7041 8.10426C16.4546 8.10426 18.1333 8.79961 19.371 10.0374C20.6088 11.2751 21.3041 12.9538 21.3041 14.7043C21.3041 16.4547 20.6088 18.1334 19.371 19.3712C18.1333 20.6089 16.4546 21.3043 14.7041 21.3043C12.9537 21.3043 11.275 20.6089 10.0372 19.3712C8.7995 18.1334 8.10414 16.4547 8.10414 14.7043Z" fill="white"/>
</g>
</svg>
