<svg width="29" height="26" viewBox="0 0 29 26" fill="none" xmlns="http://www.w3.org/2000/svg">
<g id="Frame 12">
<path id="XMLID_497_" d="M0.512104 12.4874L7.19429 14.9568L9.78071 23.1925C9.9462 23.72 10.5976 23.915 11.03 23.5649L14.7548 20.5584C15.1452 20.2434 15.7014 20.2277 16.1094 20.521L22.8275 25.3503C23.2901 25.6832 23.9454 25.4323 24.0614 24.8789L28.9828 1.43984C29.1094 0.835324 28.5095 0.331017 27.9282 0.553643L0.504274 11.0285C-0.17249 11.2869 -0.166593 12.2356 0.512104 12.4874ZM9.36388 13.6423L22.4234 5.67836C22.6581 5.53565 22.8996 5.84987 22.698 6.03498L11.9201 15.9546C11.5413 16.3037 11.2969 16.771 11.2277 17.2782L10.8606 19.9721C10.812 20.3318 10.3016 20.3675 10.2014 20.0194L8.78939 15.107C8.62767 14.5467 8.86334 13.9482 9.36388 13.6423Z" fill="white"/>
</g>
</svg>
