<svg width="396" height="443" viewBox="0 0 396 443" fill="none" xmlns="http://www.w3.org/2000/svg">
<path d="M109.187 356.237L72.8638 377.21L185.269 442.118V400.172V284.385V242.439L12.3486 342.279L48.672 363.252L116.962 323.819L148.946 305.359V379.199L109.187 356.237Z" fill="#02001c"/>
<path d="M270.482 407.169L382.87 342.279L346.564 321.305L246.291 263.412L209.967 242.439V442.118L246.291 421.145V342.279V305.359L310.241 342.279L270.482 365.241V407.169Z" fill="#02001c"/>
<path d="M382.87 99.821L346.564 78.848L278.257 118.281L246.291 136.742V62.901L286.049 85.863L322.355 64.89L209.967 0V41.9283V157.715V199.661L382.87 99.821Z" fill="#02001c"/>
<path d="M395.236 251.009V121.211L358.913 142.184L258.639 200.077L222.316 221.05L395.236 320.89V278.944L326.929 239.51L294.945 221.05L358.913 184.13V230.036L395.236 251.009Z" fill="#02001c"/>
<path d="M148.946 20.9732V99.821V136.742L84.9768 99.821L124.754 76.878V34.9312L12.3486 99.821L48.672 120.795L148.946 178.688L185.269 199.661V0L148.946 20.9732Z" fill="#02001c"/>
<path d="M0 121.211V163.157L68.2899 202.59L100.274 221.05L36.3234 257.97V212.064L0 191.091V320.89L36.3234 299.917L136.579 242.024L172.902 221.05L0 121.211Z" fill="#02001c"/>
</svg>
