<svg width="174" height="83" viewBox="0 0 174 83" fill="none" xmlns="http://www.w3.org/2000/svg">
<path d="M100.565 36.1911L100.278 43.1787L111.367 43.6339L111.219 47.2425L100.13 46.7873L99.7694 55.5792L95.5046 55.4041L96.4474 32.4402L113.211 33.1284L113.064 36.7043L100.565 36.1911Z" fill="#02071B"/>
<path d="M133.198 39.4039L132.479 56.9221L128.575 56.7618L128.667 54.531C127.978 55.2914 127.133 55.8701 126.131 56.2671C125.129 56.6423 124.06 56.8065 122.923 56.7598C120.583 56.6637 118.761 55.9427 117.458 54.5967C116.178 53.2297 115.59 51.2668 115.696 48.7079L116.106 38.7022L120.207 38.8706L119.819 48.3186C119.754 49.8932 120.056 51.0886 120.723 51.9047C121.414 52.6998 122.415 53.1243 123.727 53.1781C125.193 53.2383 126.37 52.8375 127.26 51.9759C128.172 51.0932 128.664 49.799 128.734 48.0931L129.097 39.2356L133.198 39.4039Z" fill="#02071B"/>
<path d="M143.251 57.5944C141.83 57.536 140.449 57.2931 139.108 56.8656C137.767 56.4382 136.704 55.9235 135.918 55.3217L137.621 52.2698C138.387 52.827 139.309 53.2921 140.39 53.665C141.492 54.017 142.58 54.215 143.651 54.259C146.101 54.3596 147.352 53.7647 147.405 52.4743C147.43 51.8619 147.13 51.4224 146.506 51.1558C145.904 50.8901 144.918 50.6196 143.549 50.3444C142.115 50.0664 140.944 49.7664 140.037 49.4444C139.152 49.1232 138.385 48.5988 137.736 47.8711C137.109 47.1225 136.822 46.1139 136.874 44.8454C136.942 43.1833 137.686 41.8884 139.104 40.9608C140.545 40.0122 142.446 39.5864 144.808 39.6834C146.011 39.7328 147.208 39.9243 148.399 40.258C149.591 40.5699 150.561 40.9711 151.307 41.4618L149.605 44.5137C148.154 43.5778 146.498 43.0717 144.639 42.9954C143.437 42.946 142.51 43.0942 141.861 43.44C141.234 43.7648 140.909 44.2224 140.884 44.8129C140.857 45.469 141.166 45.9527 141.811 46.264C142.478 46.5542 143.506 46.8484 144.896 47.1464C146.287 47.4226 147.425 47.7213 148.31 48.0424C149.195 48.3635 149.941 48.8761 150.547 49.5801C151.175 50.285 151.464 51.2608 151.413 52.5074C151.345 54.1477 150.581 55.4307 149.119 56.3565C147.657 57.2823 145.701 57.6949 143.251 57.5944Z" fill="#02071B"/>
<path d="M171.555 49.8511C171.544 50.1354 171.505 50.5391 171.44 51.0622L157.694 50.4979C157.882 51.7981 158.463 52.8516 159.438 53.6584C160.435 54.4442 161.688 54.8681 163.197 54.93C165.122 55.009 166.733 54.4399 168.032 53.2226L170.126 55.8388C169.3 56.7469 168.276 57.4169 167.054 57.8486C165.831 58.2804 164.465 58.4653 162.956 58.4034C161.031 58.3243 159.352 57.872 157.918 57.0464C156.484 56.2208 155.391 55.1134 154.637 53.7242C153.906 52.314 153.576 50.7451 153.647 49.0173C153.717 47.3114 154.163 45.7962 154.984 44.4717C155.828 43.1262 156.955 42.099 158.364 41.3901C159.773 40.6812 161.342 40.3622 163.069 40.4331C164.775 40.5032 166.28 40.9483 167.582 41.7685C168.908 42.5678 169.914 43.6716 170.601 45.08C171.311 46.4674 171.629 48.0577 171.555 49.8511ZM162.935 43.7137C161.623 43.6598 160.491 44.0077 159.54 44.7573C158.612 45.486 158.023 46.4914 157.773 47.7737L167.713 48.1818C167.59 46.9061 167.097 45.8562 166.232 45.0321C165.368 44.2079 164.269 43.7685 162.935 43.7137Z" fill="#02071B"/>
<g style="mix-blend-mode:luminosity">
<path d="M39.1677 12.6878C39.3259 12.6943 39.4809 12.6615 39.5118 12.6148C39.5459 12.5632 40.1814 12.5551 41.1329 12.5942C42.0843 12.6333 42.717 12.6934 42.7469 12.7476C42.7738 12.7967 42.9446 12.8429 43.1263 12.8504C43.3081 12.8578 43.479 12.9041 43.5058 12.9531C43.5329 13.0022 43.6448 13.046 43.7548 13.0505C43.8646 13.055 44.1174 13.1494 44.3165 13.2602C44.5158 13.3711 44.7729 13.5091 44.8878 13.5668C45.0026 13.6246 45.1149 13.6928 45.1373 13.7185C45.1768 13.7636 45.6801 14.0592 47.4273 15.0631C47.8854 15.3263 48.2786 15.5639 48.3009 15.5909C48.3234 15.6178 48.6792 15.8284 49.0918 16.0587C49.5046 16.289 49.8604 16.4999 49.8827 16.5272C49.9052 16.5545 50.336 16.8075 50.8405 17.0892C51.3447 17.371 51.7757 17.6236 51.7981 17.6503C51.8372 17.6975 52.3154 17.9787 54.0878 18.9972C54.5461 19.2605 54.9393 19.4977 54.9616 19.5241C54.984 19.5507 55.321 19.7566 55.7104 19.9818C56.5106 20.4447 57.8598 21.236 59.0621 21.9476L60.6855 22.9083C61.1318 23.1724 61.8437 23.5939 62.2673 23.8449C62.6907 24.0958 63.384 24.5049 63.8075 24.754C65.0258 25.4704 65.2219 25.6098 65.5699 26.0064C65.8981 26.3804 65.9905 26.5595 66.1483 27.127C66.2337 27.4342 66.176 27.7091 65.9118 28.2542C65.7614 28.5646 64.879 29.379 64.5502 29.5109C64.3953 29.5729 64.2673 29.6534 64.2658 29.6896C64.2643 29.7257 64.2222 29.7536 64.172 29.7515C64.1219 29.7495 63.909 29.8584 63.6991 29.9936C63.489 30.1288 63.2926 30.2384 63.2627 30.2372C63.2327 30.236 63.0363 30.3456 62.8262 30.4808C62.6163 30.616 62.4199 30.7256 62.3898 30.7243C62.36 30.7231 62.1636 30.8327 61.9535 30.9679C61.7434 31.1031 61.547 31.2127 61.5171 31.2115C61.4871 31.2103 61.2909 31.3199 61.0808 31.4551C60.8707 31.5903 60.6763 31.7 60.649 31.6988C60.6014 31.6969 60.3306 31.8535 59.0074 32.648C58.6834 32.8427 58.3969 33.0009 58.371 32.9998C58.3448 32.9988 58.0315 33.1821 57.6748 33.407C57.318 33.6321 57.0027 33.8152 56.9738 33.814C56.945 33.8128 56.7496 33.9224 56.5395 34.0577C56.3294 34.1929 56.133 34.3025 56.1031 34.3012C56.0731 34.3 55.8767 34.4096 55.6668 34.5448C55.4567 34.68 55.2603 34.7896 55.2304 34.7884C55.2004 34.7871 55.004 34.8968 54.7939 35.032C54.584 35.1672 54.3876 35.2768 54.3575 35.2755C54.3277 35.2743 54.1313 35.3839 53.9212 35.5191C53.7111 35.6543 53.5147 35.7639 53.4848 35.7627C53.4548 35.7615 53.2586 35.8711 53.0485 36.0061C52.8384 36.1413 52.6427 36.2509 52.6133 36.2497C52.5841 36.2485 52.3281 36.395 52.0445 36.5751C51.7607 36.7551 51.5047 36.9015 51.4755 36.9003C51.4461 36.8991 51.2504 37.0087 51.0403 37.1439C50.8304 37.2791 50.634 37.3887 50.604 37.3875C50.5741 37.3862 50.3777 37.4958 50.1676 37.631C49.9575 37.7662 49.7618 37.8759 49.7325 37.8747C49.7033 37.8735 49.4472 38.0198 49.1636 38.2C48.8799 38.3801 48.6308 38.5267 48.61 38.5258C48.5893 38.525 48.0473 38.8214 47.4058 39.1844C46.7641 39.5473 46.102 39.9169 45.9341 40.0056C45.7665 40.0945 45.5245 40.2366 45.3965 40.3217C45.2685 40.4067 45.1372 40.4752 45.1048 40.4739C45.0725 40.4725 44.9413 40.5409 44.8133 40.6259C44.398 40.9018 43.4069 41.3954 43.0152 41.5213C42.5264 41.6785 42.2054 41.7493 42.0152 41.7415C41.8991 41.7368 41.7573 41.7769 41.7 41.8309C41.5653 41.9577 38.4897 41.8272 38.091 41.6776C36.7886 41.1892 36.56 41.0712 34.3054 39.7249C33.8935 39.4788 33.1441 39.0359 32.6404 38.7407C32.1366 38.4455 31.3497 37.9824 30.8917 37.7115L29.3099 36.7759C28.8978 36.5321 28.2422 36.1427 27.8531 35.9108C27.4639 35.6788 26.7709 35.2671 26.3131 34.9957C25.8552 34.7243 25.1622 34.3127 24.773 34.0809C24.3839 33.8493 23.6813 33.4336 23.2121 33.1571C21.7139 32.2747 20.5898 31.6114 19.7984 31.1431L18.2582 30.2314C17.8346 29.9809 17.2027 29.6073 16.8539 29.4016C15.9386 28.8616 15.4941 28.4979 15.2827 28.1162C14.9365 27.4902 14.8339 26.9293 15.0095 26.6207C15.0558 26.5395 15.1599 26.3383 15.2407 26.1739C15.3216 26.0094 15.4583 25.7994 15.5447 25.707C15.879 25.3494 17.2001 24.4995 17.6029 24.383C17.686 24.3588 17.7553 24.3046 17.7571 24.2624C17.7588 24.2202 17.8012 24.1872 17.8513 24.1893C17.9014 24.1914 18.1143 24.0824 18.3243 23.9472C18.5344 23.812 18.7307 23.7024 18.7607 23.7037C18.7907 23.7049 18.987 23.5953 19.1971 23.4601C19.4071 23.3249 19.6035 23.2153 19.6335 23.2165C19.6634 23.2177 19.8598 23.1081 20.0698 22.9729C20.28 22.8377 20.4757 22.7281 20.505 22.7293C20.5342 22.7305 20.7903 22.5842 21.0738 22.4041C21.3576 22.2239 21.6135 22.0776 21.6429 22.0788C21.6721 22.08 21.8679 21.9703 22.0778 21.8351C22.2879 21.6999 22.4843 21.5903 22.5144 21.5916C22.5443 21.5928 22.7406 21.4832 22.9507 21.348C23.1606 21.2129 23.357 21.1033 23.3871 21.1046C23.417 21.1058 23.6134 20.996 23.8234 20.861C24.0335 20.7258 24.2431 20.6167 24.2893 20.6186C24.3354 20.6205 24.3873 20.5932 24.4044 20.5579C24.4432 20.4777 24.9083 20.2138 25.1102 20.1574C25.1931 20.1341 25.2625 20.0805 25.2642 20.0384C25.2659 19.996 25.3083 19.9632 25.3585 19.9653C25.4086 19.9673 25.6215 19.8584 25.8316 19.7232C26.0415 19.588 26.2379 19.4784 26.2679 19.4796C26.2978 19.4809 26.4942 19.3713 26.7043 19.236C26.9144 19.1008 27.1106 18.9912 27.1407 18.9925C27.1705 18.9937 27.3669 18.8841 27.577 18.7489C27.7871 18.6137 27.9835 18.5041 28.0134 18.5053C28.0434 18.5066 28.2398 18.397 28.4497 18.2618C28.6598 18.1266 28.8562 18.017 28.8863 18.0182C28.9161 18.0195 29.1125 17.9098 29.3226 17.7747C29.5325 17.6395 29.7284 17.5298 29.7576 17.531C29.787 17.5323 30.0428 17.3859 30.3266 17.2058C30.6104 17.0257 30.8662 16.8793 30.8956 16.8805C30.9248 16.8817 31.1207 16.7721 31.3306 16.6369C31.5407 16.5017 31.7536 16.3928 31.8037 16.3948C31.8537 16.3969 31.8961 16.3639 31.8978 16.3217C31.8996 16.2794 31.969 16.2259 32.052 16.2026C32.1998 16.1614 32.6834 15.907 32.7711 15.8244C32.7955 15.8015 32.9036 15.7373 33.0114 15.6818L33.4035 15.48C33.5113 15.4245 33.6195 15.3603 33.6438 15.3373C33.7315 15.2547 34.2152 15.0004 34.3629 14.9591C34.4458 14.9358 34.5152 14.8823 34.517 14.84C34.5187 14.7978 34.5611 14.7648 34.6113 14.7669C34.6613 14.769 34.8743 14.66 35.0842 14.5248C35.2943 14.3897 35.4907 14.2801 35.5207 14.2813C35.5506 14.2825 35.747 14.1729 35.9571 14.0377C36.167 13.9025 36.3634 13.7929 36.3934 13.7942C36.4233 13.7954 36.6125 13.6941 36.8136 13.569C37.1658 13.3503 37.4555 13.214 37.9163 13.0505C38.0352 13.0082 38.2005 12.9418 38.2835 12.9028C38.3665 12.8639 38.5093 12.8351 38.601 12.8389C38.6925 12.8426 38.7926 12.8075 38.8236 12.7609C38.8545 12.7142 39.0094 12.6814 39.1677 12.6878Z" fill="#02071B"/>
<path d="M59.8495 36.8918C59.888 36.8915 60.0773 36.7831 60.2703 36.6511C60.6946 36.3612 60.822 36.3567 61.2286 36.6178C61.4014 36.7289 61.8798 37.0179 62.2921 37.26C64.1068 38.3265 64.3442 38.4715 64.5993 38.6702C64.9378 38.9342 65.3481 39.4188 65.451 39.677C65.7363 40.3924 65.7228 40.6841 65.3726 41.3862C65.2342 41.664 64.4314 42.4123 64.1147 42.5587C63.9749 42.6236 63.6959 42.7787 63.4948 42.9037C63.2935 43.0288 63.1049 43.1302 63.0758 43.129C63.0464 43.1278 62.7905 43.2741 62.5068 43.4542C62.223 43.6342 61.9671 43.7807 61.9378 43.7795C61.9086 43.7783 61.7127 43.888 61.5028 44.0232C61.2927 44.1582 61.097 44.2678 61.0676 44.2666C61.0384 44.2654 60.7824 44.4119 60.4988 44.592C60.215 44.772 59.959 44.9185 59.9298 44.9173C59.9004 44.9161 59.7047 45.0258 59.4946 45.1608C59.2847 45.296 59.0883 45.4056 59.0583 45.4044C59.0284 45.4031 58.832 45.5127 58.6219 45.6479C58.4118 45.7831 58.2154 45.8927 58.1855 45.8915C58.1555 45.8903 57.9591 45.9999 57.7492 46.1351C57.5391 46.2703 57.3427 46.3799 57.3127 46.3787C57.2828 46.3774 57.0864 46.487 56.8763 46.6222C56.6664 46.7575 56.469 46.867 56.4377 46.8657C56.4067 46.8645 56.2764 46.9328 56.1484 47.0179C56.0204 47.1029 55.7784 47.2447 55.6106 47.3329C55.4428 47.4211 54.9716 47.6861 54.5632 47.9218C54.1549 48.1576 53.703 48.4136 53.5591 48.4908C53.4153 48.5678 52.9634 48.8239 52.5551 49.0596C52.1468 49.2952 51.6753 49.56 51.5077 49.6476C51.3399 49.7353 51.1631 49.8363 51.1147 49.872C51.0662 49.9078 50.8895 50.0088 50.7217 50.0965C50.554 50.1841 50.0825 50.4487 49.6742 50.6845C49.2659 50.9202 48.8141 51.1763 48.6702 51.2533C48.5263 51.3305 48.0746 51.5865 47.6662 51.8223C47.2579 52.058 46.7865 52.323 46.6187 52.4112C46.4509 52.4994 46.209 52.641 46.081 52.7261C45.953 52.8111 45.8218 52.8796 45.7894 52.8783C45.7571 52.877 45.6258 52.9455 45.4978 53.0305C45.3698 53.1155 45.1279 53.2571 44.9601 53.3453C44.7923 53.4335 44.3407 53.6857 43.9564 53.9058C43.1714 54.3553 42.6397 54.5897 42.1326 54.71C40.465 55.1048 39.8177 55.1429 38.4665 54.9258C36.8694 54.669 36.7878 54.6291 31.7066 51.6152L30.0833 50.6529C29.6368 50.3885 28.9532 49.9824 28.564 49.7508C28.1749 49.519 27.4818 49.1092 27.0238 48.84C26.5659 48.5708 25.8165 48.1281 25.3587 47.8562C24.9008 47.5844 24.114 47.1203 23.6101 46.8249C23.1065 46.5296 22.3571 46.0867 21.9451 45.8409C21.5329 45.595 20.7837 45.1526 20.2799 44.8576C19.776 44.5628 19.083 44.1531 18.7397 43.9471C18.3963 43.7413 17.797 43.3836 17.4079 43.1521C15.1022 41.7818 15.0221 41.7234 14.7113 41.1908C14.4022 40.6612 14.2713 39.8156 14.4798 39.6958C14.5278 39.668 14.5708 39.5793 14.5753 39.4984C14.5928 39.1822 15.2189 38.5473 15.9918 38.0615C16.4242 37.7897 16.8011 37.5685 16.8296 37.5696C16.8581 37.5708 17.0533 37.4612 17.2633 37.326C17.4734 37.1908 17.6697 37.0811 17.6997 37.0824C17.7297 37.0836 17.926 36.974 18.1361 36.8388C18.3461 36.7036 18.5425 36.594 18.5725 36.5952C18.6024 36.5965 18.7916 36.4953 18.9927 36.3701C19.6153 35.9832 19.8167 35.9104 19.9431 36.0269C20.0049 36.0839 20.446 36.3575 20.9231 36.635C21.4003 36.9123 22.1277 37.3403 22.5399 37.5859C22.9519 37.8316 23.6636 38.253 24.1217 38.5225C24.5795 38.7918 25.2913 39.2134 25.7035 39.459C26.1155 39.7047 26.8272 40.1264 27.2853 40.3963C29.5519 41.7321 30.0263 42.0111 30.9906 42.5753C34.2008 44.4543 35.338 45.1062 35.6562 45.2496C35.7714 45.3017 35.9306 45.3814 36.0101 45.4271C36.0897 45.4728 36.2243 45.5129 36.3092 45.5164C36.3942 45.5199 36.4986 45.5594 36.5412 45.6042C36.584 45.6489 36.7714 45.7135 36.9576 45.7479C37.1438 45.7822 37.5432 45.8685 37.845 45.9401C38.147 46.0115 39.0262 46.096 39.7987 46.1277C41.1204 46.182 41.6991 46.1455 42.6202 45.9499C42.8331 45.9048 43.1139 45.8505 43.2444 45.8293C43.3747 45.8082 43.5039 45.7568 43.5313 45.7157C43.5586 45.6744 43.6591 45.6438 43.7545 45.6478C43.9679 45.6565 45.2977 45.0783 45.7969 44.7599C45.9983 44.6315 46.1874 44.5274 46.2175 44.5286C46.2474 44.5299 46.4438 44.4203 46.6538 44.2851C46.8639 44.1499 47.0614 44.0403 47.0924 44.0416C47.1237 44.0429 47.2539 43.9743 47.3819 43.8893C47.5099 43.8042 47.7617 43.6577 47.9413 43.5637L48.595 43.2215C48.7747 43.1274 49.0264 42.9808 49.1544 42.8957C49.2824 42.8107 49.4115 42.7423 49.4412 42.7435C49.4707 42.7447 49.8466 42.5248 50.2761 42.2548C50.7057 41.9848 51.0806 41.7648 51.1091 41.766C51.1376 41.7672 51.3328 41.6575 51.5427 41.5223C51.7528 41.3871 51.9492 41.2775 51.9791 41.2787C52.0091 41.28 52.2055 41.1704 52.4156 41.0352C52.6255 40.9001 52.8219 40.7905 52.8519 40.7918C52.8818 40.793 53.0782 40.6832 53.2883 40.5482C53.4984 40.413 53.6948 40.3034 53.7246 40.3046C53.7547 40.3058 53.9511 40.1962 54.161 40.061C54.3711 39.9258 54.5675 39.8162 54.5974 39.8175C54.6274 39.8187 54.8238 39.7091 55.0339 39.5739C55.2438 39.4387 55.4402 39.3291 55.4702 39.3303C55.5001 39.3315 55.6965 39.2219 55.9066 39.0867C56.1167 38.9515 56.3129 38.8419 56.343 38.8432C56.373 38.8444 56.5692 38.7348 56.7793 38.5996C56.9894 38.4644 57.1858 38.3548 57.2157 38.356C57.2457 38.3572 57.4421 38.2476 57.652 38.1124C57.8621 37.9774 58.0585 37.8678 58.0885 37.869C58.1184 37.8702 58.3148 37.7606 58.5249 37.6254C58.735 37.4902 58.9312 37.3806 58.9613 37.3819C58.9911 37.3831 59.1875 37.2735 59.3976 37.1383C59.6077 37.0031 59.811 36.8922 59.8495 36.8918Z" fill="#02071B"/>
<path d="M58.1628 50.5977C58.3068 50.5189 58.6583 50.322 58.9439 50.1601C59.4442 49.8766 59.6508 49.8545 59.8905 50.0594C59.9358 50.0982 60.3382 50.3453 60.7847 50.6085C61.2312 50.8716 61.9618 51.305 62.408 51.5713C62.8544 51.8376 63.3996 52.1588 63.6196 52.2848C64.2499 52.6459 64.857 53.3595 65.009 53.9181C65.1193 54.3229 65.1205 54.4513 65.0172 54.8015C64.8783 55.2727 64.4369 55.8811 64.0147 56.183C63.7624 56.3635 61.0618 57.908 60.1888 58.371C60.0211 58.4599 59.7791 58.6023 59.6511 58.6874C59.5231 58.7724 59.3929 58.8408 59.3616 58.8395C59.3305 58.8382 59.1331 58.9478 58.923 59.083C58.7131 59.2182 58.5157 59.3278 58.4845 59.3265C58.4534 59.3252 58.3232 59.3937 58.1952 59.4788C58.0672 59.5638 57.8252 59.7061 57.6573 59.7952C57.4895 59.8842 56.6255 60.3678 55.7371 60.8697C54.8489 61.3718 54.0042 61.8471 53.8604 61.926C53.7164 62.0049 52.6755 62.5897 51.5472 63.2254C50.4188 63.8611 49.3584 64.4541 49.1906 64.5433C49.0228 64.6324 48.7807 64.7748 48.6527 64.8598C48.5247 64.9449 48.3935 65.0134 48.3612 65.0121C48.3288 65.0107 48.1975 65.079 48.0695 65.1641C47.9415 65.2491 47.6997 65.3916 47.5318 65.4808C47.364 65.57 46.3035 66.1646 45.1751 66.802C44.0467 67.4396 42.9276 68.0606 42.6881 68.182C41.4681 68.8002 39.3623 69.0936 37.8694 68.8531C36.4562 68.6254 35.7876 68.3139 32.4877 66.3452C32.0986 66.1131 31.4149 65.7069 30.9685 65.4425L29.3658 64.4937L27.784 63.557L26.2022 62.6206L24.6203 61.6841L23.0385 60.7475L21.4567 59.811C21.0218 59.5534 20.3194 59.1372 19.8958 58.886C19.4723 58.6347 18.7229 58.1921 18.2307 57.9025C17.7383 57.6128 16.9515 57.1483 16.4822 56.8704C16.0128 56.5926 15.4603 56.266 15.2542 56.1447C14.4525 55.6724 13.7769 54.663 13.8091 53.9857C13.8307 53.5324 14.2078 52.8436 14.6298 52.4862C14.8996 52.258 16.0958 51.4852 16.1745 51.4884C16.2045 51.4897 16.3338 51.4211 16.4618 51.336C16.5898 51.251 16.8318 51.1087 16.9996 51.0198C17.1674 50.931 17.8883 50.5287 18.6015 50.1262L19.8985 49.3943L20.7017 49.8637C21.1434 50.1219 21.8231 50.5235 22.2122 50.7563C22.6013 50.9892 23.3133 51.4107 23.794 51.6932C24.275 51.9756 24.9867 52.3971 25.3758 52.6298C25.7649 52.8623 26.4769 53.2838 26.9577 53.5663C27.7823 54.0508 28.3012 54.3578 30.1422 55.4507C33.5298 57.4617 35.0393 58.319 35.4546 58.4672C35.6628 58.5416 35.8701 58.6313 35.9155 58.6669C35.9609 58.7023 36.1313 58.759 36.2941 58.7931C36.4569 58.8269 36.8369 58.9154 37.1387 58.9895C38.1186 59.2304 41.1825 59.2915 41.9103 59.085C42.029 59.0514 42.3005 58.9819 42.5136 58.9307C43.6707 58.653 44.2044 58.4339 45.4626 57.7208C45.7748 57.5437 46.148 57.3357 46.2917 57.2583C46.6258 57.079 47.0562 56.8374 49.0414 55.7145C49.9297 55.2123 50.7938 54.7284 50.9616 54.6393C51.1294 54.5504 51.3715 54.408 51.4995 54.3229C51.6275 54.2379 51.7577 54.1695 51.7887 54.1708C51.82 54.1721 52.0172 54.0625 52.2273 53.9273C52.4374 53.7921 52.6338 53.6825 52.6637 53.6837C52.6937 53.685 52.8901 53.5754 53.1 53.4402C53.3101 53.305 53.5075 53.1954 53.5388 53.1967C53.5699 53.198 53.7001 53.1294 53.8281 53.0444C53.9561 52.9593 54.1981 52.8171 54.3659 52.728C54.5336 52.639 55.3978 52.1554 56.286 51.6535C57.1744 51.1514 58.0189 50.6763 58.1628 50.5977Z" fill="#02071B"/>
</g>
</svg>
