<svg width="170" height="73" viewBox="0 0 170 73" fill="none" xmlns="http://www.w3.org/2000/svg">
<path d="M102.724 28.4155L101.894 48.6259L98.1404 48.4718L98.496 39.8102L88.0444 39.3811L87.6888 48.0427L83.9354 47.8886L84.7652 27.6782L88.5185 27.8323L88.176 36.1763L98.6276 36.6054L98.9702 28.2614L102.724 28.4155Z" fill="#02071B"/>
<path d="M122.596 46.3235L122.467 49.4705L107.309 48.8482L108.139 28.6378L122.893 29.2435L122.763 32.3906L111.763 31.939L111.547 37.1937L121.306 37.5943L121.179 40.6836L111.421 40.283L111.192 45.8553L122.596 46.3235Z" fill="#02071B"/>
<path d="M135.909 50.3116C133.869 50.2278 132.039 49.7093 130.421 48.7559C128.822 47.7841 127.583 46.4896 126.705 44.8726C125.845 43.2563 125.457 41.4569 125.538 39.4744C125.619 37.4918 126.164 35.7307 127.172 34.1911C128.18 32.6515 129.52 31.4726 131.193 30.6543C132.885 29.8176 134.751 29.4412 136.792 29.5249C138.447 29.5929 139.946 29.9437 141.289 30.5772C142.632 31.2107 143.752 32.0954 144.651 33.2313L142.132 35.4126C140.734 33.7742 138.966 32.9112 136.83 32.8235C135.444 32.7666 134.19 33.0236 133.067 33.5945C131.946 34.1461 131.055 34.9482 130.395 36.0008C129.734 37.0534 129.376 38.263 129.32 39.6296C129.264 40.9962 129.522 42.2311 130.094 43.3343C130.665 44.4375 131.487 45.3196 132.559 45.9805C133.632 46.6223 134.861 46.9716 136.247 47.0285C138.383 47.1162 140.216 46.3913 141.744 44.8538L144.074 47.2631C143.086 48.3215 141.887 49.111 140.478 49.6315C139.088 50.1529 137.565 50.3795 135.909 50.3116Z" fill="#02071B"/>
<path d="M156.55 51.159C154.491 51.0745 152.652 50.5555 151.033 49.6021C149.414 48.6295 148.166 47.3347 147.288 45.7176C146.41 44.0813 146.012 42.2815 146.092 40.3182C146.173 38.3549 146.717 36.6035 147.725 35.0638C148.734 33.505 150.084 32.3168 151.776 31.4994C153.468 30.6627 155.344 30.2866 157.404 30.3712C159.463 30.4557 161.302 30.9843 162.92 31.9569C164.539 32.9103 165.788 34.1955 166.666 35.8126C167.545 37.4296 167.943 39.2294 167.862 41.212C167.78 43.1945 167.236 44.9556 166.228 46.4952C165.22 48.0348 163.87 49.223 162.177 50.0597C160.486 50.8771 158.61 51.2436 156.55 51.159ZM156.686 47.8676C158.033 47.9229 159.258 47.6744 160.36 47.1219C161.463 46.5502 162.345 45.7381 163.005 44.6855C163.666 43.6136 164.024 42.404 164.08 41.0567C164.135 39.7093 163.877 38.4841 163.305 37.3809C162.734 36.2585 161.922 35.3768 160.869 34.7358C159.816 34.0756 158.616 33.7179 157.269 33.6626C155.921 33.6073 154.696 33.8654 153.593 34.4371C152.491 34.9896 151.609 35.8017 150.948 36.8736C150.288 37.9262 149.93 39.1261 149.875 40.4735C149.819 41.8209 150.077 43.0557 150.648 44.1782C151.22 45.2813 152.032 46.163 153.084 46.8232C154.138 47.4642 155.338 47.8123 156.686 47.8676Z" fill="#02071B"/>
<g style="mix-blend-mode:luminosity">
<path d="M40.4049 25.6487C40.6645 19.3235 37.8907 13.7537 35.6662 11.8793C35.6662 11.8793 35.5069 11.7777 35.4962 12.0388C34.8077 24.2539 28.582 27.3503 25.0174 31.6497C16.8497 41.6439 23.5943 53.2252 30.8337 55.6025C34.903 56.9346 29.9624 53.4867 29.6006 46.6488C29.1826 38.3347 40.1242 32.4839 40.4049 25.6487Z" fill="#02071B"/>
<path d="M44.378 29.0212C44.3444 28.9841 44.2743 28.9812 44.2029 29.014C44.2029 29.014 44.2031 29.0138 44.1668 29.048C43.9595 30.6798 42.041 34.1552 39.6803 37.3034C31.6587 48.005 35.7569 53.4748 38.0776 56.4228C39.4085 58.1536 38.0776 56.423 41.67 54.8588C41.9442 54.7274 48.6679 51.4493 49.7214 43.4332C50.7543 35.6303 46.069 30.517 44.378 29.0212Z" fill="#02071B"/>
</g>
</svg>
