<svg width="172" height="82" viewBox="0 0 172 82" fill="none" xmlns="http://www.w3.org/2000/svg">
<path d="M114.783 32.3205L113.856 54.9048L110.404 54.763L98.5778 38.959L97.95 54.2518L93.788 54.0809L94.7152 31.4966L98.1674 31.6383L109.993 47.4424L110.621 32.1496L114.783 32.3205Z" fill="#02071B"/>
<path d="M136.066 47.2848C136.055 47.5644 136.017 47.9614 135.953 48.4759L122.434 47.9209C122.619 49.1996 123.19 50.2357 124.149 51.0291C125.13 51.8019 126.362 52.2188 127.846 52.2797C129.739 52.3574 131.324 51.7977 132.601 50.6005L134.661 53.1735C133.849 54.0666 132.841 54.7255 131.639 55.1501C130.436 55.5747 129.093 55.7566 127.609 55.6956C125.716 55.6179 124.065 55.1731 122.655 54.3611C121.244 53.5491 120.169 52.46 119.428 51.0938C118.709 49.707 118.385 48.164 118.454 46.4648C118.523 44.7871 118.961 43.2969 119.769 41.9943C120.599 40.671 121.707 39.6608 123.093 38.9636C124.479 38.2664 126.021 37.9527 127.721 38.0225C129.398 38.0914 130.878 38.5291 132.159 39.3358C133.462 40.1219 134.452 41.2074 135.128 42.5925C135.826 43.957 136.138 45.521 136.066 47.2848ZM127.588 41.2488C126.298 41.1958 125.185 41.5379 124.25 42.2752C123.337 42.9918 122.758 43.9806 122.512 45.2417L132.288 45.643C132.167 44.3885 131.681 43.3559 130.831 42.5454C129.981 41.7349 128.9 41.3027 127.588 41.2488Z" fill="#02071B"/>
<path d="M146.415 38.79C148.953 38.8942 150.863 39.5866 152.147 40.8674C153.452 42.1275 154.055 43.9836 153.954 46.4356L153.539 56.534L149.732 56.3777L149.818 54.2806C149.293 55.0131 148.559 55.5647 147.617 55.9354C146.698 56.2854 145.593 56.434 144.303 56.381C143.012 56.328 141.892 56.0666 140.942 55.5967C139.992 55.1052 139.265 54.4613 138.759 53.6649C138.275 52.8479 138.054 51.9447 138.094 50.9553C138.158 49.4067 138.779 48.1933 139.957 47.3152C141.157 46.4165 142.994 46.0179 145.467 46.1195L149.92 46.3023L149.93 46.0442C149.98 44.8397 149.652 43.8998 148.947 43.2245C148.264 42.5501 147.213 42.1837 145.793 42.1255C144.825 42.0857 143.862 42.197 142.903 42.4593C141.966 42.7224 141.163 43.1096 140.496 43.6208L139.036 40.62C139.967 39.9688 141.075 39.4864 142.359 39.1729C143.643 38.8593 144.995 38.7317 146.415 38.79ZM145.262 53.4795C146.273 53.521 147.175 53.3318 147.968 52.9119C148.783 52.4714 149.37 51.8276 149.728 50.9805L149.81 48.9801L145.648 48.8093C143.325 48.7139 142.132 49.4298 142.069 50.9569C142.039 51.6882 142.306 52.2809 142.869 52.7349C143.432 53.1889 144.23 53.4371 145.262 53.4795Z" fill="#02071B"/>
<path d="M163.158 42.1921C164.394 40.433 166.474 39.6135 169.4 39.7336L169.242 43.5729C168.901 43.4943 168.59 43.4492 168.31 43.4377C166.74 43.3733 165.495 43.7854 164.575 44.6741C163.656 45.5412 163.162 46.8352 163.091 48.5559L162.748 56.912L158.715 56.7465L159.422 39.5179L163.262 39.6755L163.158 42.1921Z" fill="#02071B"/>
<g style="mix-blend-mode:luminosity">
<path d="M55.3238 17.3264L44.1718 32.5106C43.4014 33.5443 44.7463 34.8889 45.7893 34.0347L56.5024 25.4481C56.791 25.2357 57.1756 25.4197 57.1595 25.8115L56.0036 53.9646C55.9876 54.3564 55.4774 54.5036 55.2654 54.2147L25.4963 15.4291C24.5405 14.1564 23.1145 13.4251 21.4931 13.3585L20.375 13.3126C17.4677 13.1933 14.9649 15.5013 14.8431 18.4677L13.2162 58.0948C13.0944 61.0613 15.3996 63.5666 18.3627 63.6883C20.2077 63.764 21.9799 62.8836 23.0529 61.3019L34.2049 46.1177C34.9753 45.084 33.6304 43.7394 32.5874 44.5936L21.8765 53.1241C21.5879 53.3367 21.2034 53.1527 21.2195 52.7608L22.3731 24.6637C22.3891 24.2719 22.8993 24.1247 23.1113 24.4136L52.8804 63.1993C53.8362 64.4719 55.3181 65.2055 56.8835 65.2698L58.0018 65.3157C60.965 65.4373 63.4678 63.1294 63.5895 60.1629L65.2164 20.5358C65.3382 17.5694 63.033 15.064 60.0699 14.9423C58.169 14.8643 56.3967 15.7446 55.3238 17.3264Z" fill="#02071B"/>
</g>
</svg>
