<svg width="172" height="71" viewBox="0 0 172 71" fill="none" xmlns="http://www.w3.org/2000/svg">
<path d="M85.419 46.3068C83.9444 46.2463 82.524 45.9783 81.1577 45.5028C79.8096 45.028 78.7492 44.4283 77.9766 43.7037L79.3186 40.9962C80.076 41.6473 81.0108 42.1962 82.123 42.643C83.2542 43.0724 84.3932 43.3106 85.54 43.3577C86.96 43.416 88.0252 43.2318 88.7356 42.8051C89.4642 42.3792 89.8439 41.793 89.8745 41.0466C89.897 40.5005 89.715 40.0463 89.3287 39.684C88.9614 39.3042 88.4815 39.0018 87.8889 38.7769C87.2964 38.552 86.4866 38.2908 85.4594 37.9934C84.0173 37.5877 82.8482 37.1933 81.9522 36.81C81.0744 36.4275 80.3228 35.8587 79.6973 35.1036C79.0908 34.3311 78.8133 33.3168 78.8649 32.0607C78.9083 31.0049 79.2297 30.0607 79.8291 29.2283C80.4475 28.3784 81.3406 27.7222 82.5084 27.2595C83.6944 26.7977 85.1248 26.6011 86.7996 26.6699C87.9646 26.7177 89.1055 26.9104 90.2222 27.248C91.3389 27.5856 92.2956 28.0443 93.0924 28.6241L91.8596 31.336C91.0424 30.8101 90.1839 30.4011 89.2842 30.1088C88.3845 29.8166 87.5068 29.6529 86.6512 29.6178C85.2495 29.5603 84.193 29.7539 83.4818 30.1989C82.7888 30.6445 82.4263 31.2587 82.3941 32.0415C82.3717 32.5876 82.5446 33.0415 82.9126 33.403C83.2989 33.7654 83.7883 34.059 84.3809 34.2839C84.9734 34.5088 85.7832 34.77 86.8104 35.0674C88.2169 35.4534 89.3677 35.8471 90.263 36.2486C91.159 36.6318 91.9106 37.2006 92.5179 37.9549C93.1433 38.71 93.4306 39.7065 93.3798 40.9444C93.3365 42.0002 93.006 42.944 92.3883 43.7756C91.7889 44.6081 90.8961 45.2552 89.7101 45.7171C88.5241 46.179 87.0938 46.3756 85.419 46.3068Z" fill="#02071B"/>
<path d="M102.896 46.9423C101.421 46.8817 100.105 46.5086 98.9483 45.8229C97.7912 45.1371 96.899 44.2161 96.2718 43.0598C95.6635 41.886 95.3889 40.5801 95.448 39.142C95.507 37.7038 95.8874 36.4339 96.5891 35.3321C97.309 34.2311 98.2736 33.3864 99.483 32.7978C100.692 32.2092 102.034 31.9452 103.509 32.0057C105.002 32.067 106.327 32.4405 107.484 33.1263C108.641 33.812 109.524 34.7326 110.133 35.8882C110.76 37.0445 111.044 38.3417 110.985 39.7799C110.926 41.218 110.536 42.4966 109.816 43.6159C109.114 44.7176 108.158 45.5628 106.949 46.1513C105.74 46.7399 104.389 47.0035 102.896 46.9423ZM103.016 44.0205C104.272 44.0721 105.327 43.696 106.18 42.8922C107.034 42.0884 107.489 41.0039 107.545 39.6386C107.601 38.2733 107.236 37.1551 106.451 36.2841C105.667 35.4131 104.646 34.9518 103.39 34.9002C102.134 34.8486 101.079 35.2247 100.226 36.0285C99.3903 36.833 98.9446 37.9179 98.8886 39.2832C98.8325 40.6485 99.1878 41.7663 99.9544 42.6366C100.739 43.5076 101.76 43.9689 103.016 44.0205Z" fill="#02071B"/>
<path d="M114.782 26.9434L118.195 27.0835L117.363 47.3448L113.95 47.2046L114.782 26.9434Z" fill="#02071B"/>
<path d="M128.019 33.012C130.167 33.1002 131.784 33.6863 132.87 34.7703C133.975 35.8368 134.485 37.4077 134.4 39.4829L134.049 48.0298L130.827 47.8975L130.9 46.1226C130.455 46.7426 129.834 47.2094 129.037 47.5231C128.259 47.8194 127.324 47.9452 126.232 47.9003C125.139 47.8555 124.191 47.6342 123.387 47.2365C122.583 46.8206 121.967 46.2756 121.539 45.6015C121.13 44.9101 120.943 44.1456 120.977 43.3082C121.031 41.9975 121.556 40.9706 122.553 40.2274C123.569 39.4668 125.124 39.1295 127.217 39.2154L130.985 39.3701L130.994 39.1517C131.036 38.1322 130.759 37.3367 130.162 36.7652C129.584 36.1944 128.694 35.8844 127.493 35.835C126.674 35.8014 125.858 35.8956 125.047 36.1175C124.254 36.3403 123.574 36.668 123.01 37.1007L121.774 34.5609C122.562 34.0097 123.5 33.6015 124.587 33.3361C125.673 33.0707 126.817 32.9627 128.019 33.012ZM127.043 45.4446C127.899 45.4797 128.662 45.3196 129.333 44.9642C130.023 44.5914 130.52 44.0465 130.823 43.3295L130.892 41.6365L127.37 41.4919C125.404 41.4112 124.394 42.0171 124.341 43.3096C124.316 43.9285 124.541 44.4301 125.018 44.8144C125.495 45.1986 126.17 45.4087 127.043 45.4446Z" fill="#02071B"/>
<path d="M147.309 33.8039C149.147 33.8794 150.6 34.477 151.666 35.5966C152.732 36.7163 153.222 38.3319 153.136 40.4436L152.793 48.7993L149.379 48.6592L149.704 40.7404C149.757 39.4661 149.496 38.498 148.921 37.8362C148.347 37.1562 147.505 36.7934 146.395 36.7478C145.138 36.6962 144.131 37.0378 143.371 37.7725C142.612 38.489 142.204 39.5572 142.145 40.9771L141.843 48.3498L138.429 48.2096L139.028 33.6281L142.278 33.7615L142.2 35.6456C142.792 34.9953 143.523 34.5147 144.393 34.2039C145.263 33.8932 146.235 33.7598 147.309 33.8039Z" fill="#02071B"/>
<path d="M163.298 34.4604C165.446 34.5486 167.063 35.1347 168.15 36.2186C169.255 37.2852 169.764 38.8561 169.679 40.9313L169.328 49.4782L166.106 49.3459L166.179 47.571C165.734 48.191 165.113 48.6578 164.316 48.9715C163.538 49.2678 162.603 49.3936 161.511 49.3487C160.419 49.3039 159.47 49.0826 158.666 48.6849C157.863 48.269 157.247 47.724 156.819 47.0499C156.409 46.3585 156.222 45.594 156.256 44.7566C156.31 43.4459 156.836 42.419 157.833 41.6758C158.848 40.9152 160.403 40.5779 162.497 40.6638L166.265 40.8185L166.274 40.6001C166.316 39.5806 166.038 38.7851 165.442 38.2136C164.864 37.6428 163.974 37.3328 162.772 37.2834C161.953 37.2498 161.138 37.344 160.326 37.5659C159.533 37.7887 158.854 38.1164 158.289 38.5491L157.053 36.0093C157.842 35.4581 158.779 35.0499 159.866 34.7845C160.953 34.5191 162.097 34.4111 163.298 34.4604ZM162.323 46.893C163.179 46.9281 163.942 46.768 164.613 46.4126C165.303 46.0398 165.799 45.4949 166.102 44.7779L166.172 43.0849L162.649 42.9403C160.683 42.8596 159.674 43.4655 159.621 44.758C159.595 45.3769 159.821 45.8785 160.297 46.2628C160.774 46.647 161.449 46.8571 162.323 46.893Z" fill="#02071B"/>
<g style="mix-blend-mode:luminosity">
<path d="M47.1691 11.3232C44.5718 11.2146 42.0373 12.1438 40.1221 13.9068C38.2068 15.6699 37.0673 18.1228 36.9537 20.7271L36.5073 31.6005C35.4939 31.6273 34.4589 31.628 33.3876 31.584C32.3164 31.54 31.2864 31.5409 30.2683 31.56L30.7235 20.4714C30.7882 17.8876 29.8375 15.3823 28.0763 13.4957C26.3151 11.609 23.8847 10.4924 21.3095 10.3867C18.7343 10.281 16.2206 11.1946 14.3107 12.9305C12.4008 14.6664 11.2479 17.0854 11.1006 19.6657L10.0336 45.6532C9.96896 48.2369 10.9198 50.7422 12.6809 52.629C14.442 54.5155 16.8724 55.6321 19.4476 55.7379C22.0228 55.8436 24.5366 54.93 26.4465 53.1941C28.3564 51.4581 29.5092 49.0392 29.6566 46.4588L30.103 35.5855C31.1164 35.5586 32.1514 35.558 33.2227 35.602C34.2939 35.6459 35.3239 35.6451 36.3421 35.626L35.8868 46.7146C35.8222 49.2983 36.7729 51.8036 38.534 53.6904C40.2952 55.5769 42.7256 56.6936 45.3008 56.7993C47.876 56.905 50.3897 55.9914 52.2996 54.2555C54.2095 52.5195 55.3624 50.1006 55.5097 47.5202L56.5767 21.5328C56.6769 18.9284 55.7426 16.3907 53.9789 14.4766C52.2153 12.5626 49.7661 11.4285 47.1691 11.3232ZM21.1484 14.2797C22.6814 14.3419 24.127 15.0114 25.168 16.1412C26.2091 17.271 26.7605 18.769 26.7014 20.3062L26.2287 31.8205C23.3409 32.1197 20.5051 32.7993 17.7943 33.8418C16.6195 34.3024 15.5065 34.9079 14.481 35.6446L15.1303 19.8312C15.1973 18.2959 15.8682 16.8499 16.9963 15.8093C18.1241 14.7688 19.6172 14.2188 21.1484 14.2797ZM25.6345 46.2937C25.5713 47.8338 24.9006 49.2856 23.7698 50.33C22.6392 51.3743 21.1413 51.9256 19.6054 51.8625C18.0696 51.7995 16.6219 51.1272 15.5807 49.9938C14.5394 48.8602 13.99 47.3583 14.0532 45.8182L14.1603 43.2114C14.2548 40.9085 16.1633 38.802 19.2685 37.5693C21.4554 36.728 23.7371 36.1594 26.0622 35.8764L25.6345 46.2937ZM45.4619 52.9063C43.9289 52.8441 42.4833 52.1746 41.4423 51.0447C40.4012 49.915 39.8498 48.4171 39.9089 46.8797L40.3816 35.3655C43.2694 35.0662 46.1052 34.3866 48.816 33.3441C49.9908 32.8836 51.1038 32.278 52.1292 31.5415L51.48 47.3548C51.413 48.89 50.7421 50.3362 49.6141 51.3766C48.4862 52.4172 46.9931 52.9672 45.4619 52.9063ZM47.3424 29.6015C45.1555 30.4429 42.8739 31.0114 40.5487 31.2944L40.9758 20.8923C41.039 19.3522 41.7098 17.9004 42.8405 16.856C43.9711 15.8117 45.4691 15.2604 47.0049 15.3235C48.5407 15.3865 49.9884 16.0587 51.0296 17.1922C52.0709 18.3258 52.6204 19.8277 52.5571 21.3677L52.4501 23.9745C52.356 26.2674 50.4474 28.3738 47.3424 29.6015Z" fill="#02071B"/>
</g>
</svg>
