<svg width="171" height="70" viewBox="0 0 171 70" fill="none" xmlns="http://www.w3.org/2000/svg">
<path d="M15.6405 42.6931C15.9219 42.427 16.3795 42.2606 16.8295 42.2791L56.6972 43.9158C57.4171 43.9454 57.7391 44.8844 57.1764 45.4166L48.9231 53.2238C48.6415 53.4901 48.1841 53.6564 47.7341 53.6379L7.95633 52.0048C7.23637 51.9753 6.91435 51.0365 7.4771 50.504L15.6405 42.6931Z" fill="#02071B"/>
<path d="M16.8813 12.474C17.1626 12.2079 17.6202 12.0415 18.0701 12.06L57.9379 13.6968C58.6579 13.7263 58.9799 14.6652 58.4172 15.1975L50.1637 23.0048C49.8823 23.2709 49.4248 23.4372 48.9748 23.4187L9.19707 21.7856C8.4771 21.7561 8.15509 20.8173 8.71781 20.285L16.8813 12.474Z" fill="#02071B"/>
<path d="M50.0147 28.83C49.7561 28.5417 49.3137 28.3384 48.8637 28.3199L8.99598 26.6831C8.27602 26.6536 7.87812 27.563 8.39533 28.1396L15.981 36.597C16.2396 36.8854 16.682 37.0887 17.132 37.1072L56.9996 38.7439C57.7196 38.7735 58.1175 37.8642 57.6003 37.2875L50.0147 28.83Z" fill="#02071B"/>
<path d="M84.8845 44.7983C83.4101 44.7377 81.9899 44.4698 80.6238 43.9943C79.2758 43.5196 78.2156 42.92 77.4431 42.1955L78.7849 39.4884C79.5422 40.1393 80.4769 40.6882 81.589 41.135C82.72 41.5643 83.8588 41.8025 85.0055 41.8496C86.4253 41.9079 87.4903 41.7237 88.2007 41.2971C88.9292 40.8711 89.3088 40.2851 89.3395 39.5388C89.3619 38.9927 89.18 38.5386 88.7937 38.1763C88.4264 37.7966 87.9466 37.4943 87.3541 37.2694C86.7617 37.0445 85.952 36.7834 84.9249 36.4859C83.483 36.0803 82.3141 35.6859 81.4182 35.3027C80.5405 34.9203 79.7889 34.3516 79.1636 33.5966C78.5572 32.8242 78.2797 31.81 78.3313 30.5541C78.3746 29.4984 78.696 28.5544 79.2954 27.722C79.9137 26.8723 80.8067 26.2161 81.9743 25.7535C83.1601 25.2917 84.5903 25.0952 86.2649 25.1639C87.4298 25.2117 88.5706 25.4044 89.6871 25.742C90.8037 26.0795 91.7603 26.5382 92.5569 27.1178L91.3243 29.8295C90.5072 29.3036 89.6488 28.8946 88.7492 28.6024C87.8496 28.3102 86.972 28.1466 86.1165 28.1115C84.715 28.0539 83.6587 28.2476 82.9476 28.6924C82.2547 29.138 81.8922 29.7522 81.8601 30.5348C81.8376 31.0809 82.0104 31.5347 82.3785 31.8962C82.7647 32.2585 83.2541 32.5521 83.8465 32.7769C84.4389 33.0018 85.2487 33.263 86.2757 33.5604C87.682 33.9463 88.8327 34.34 89.7279 34.7414C90.6238 35.1246 91.3753 35.6933 91.9825 36.4475C92.6078 37.2025 92.8951 38.1988 92.8443 39.4365C92.801 40.4922 92.4705 41.4359 91.8529 42.2675C91.2535 43.0998 90.3609 43.7468 89.1751 44.2087C87.9893 44.6705 86.5591 44.867 84.8845 44.7983Z" fill="#02071B"/>
<path d="M102.359 45.4336C100.885 45.3731 99.569 45 98.412 44.3144C97.2551 43.6288 96.363 42.7079 95.7359 41.5517C95.1277 40.3781 94.8531 39.0723 94.9122 37.6344C94.9712 36.1964 95.3515 34.9267 96.0531 33.8251C96.7729 32.7242 97.7374 31.8795 98.9467 31.291C100.156 30.7025 101.498 30.4386 102.972 30.4991C104.465 30.5604 105.789 30.9338 106.946 31.6195C108.103 32.3051 108.986 33.2256 109.595 34.381C110.222 35.5372 110.506 36.8342 110.447 38.2722C110.388 39.7101 109.999 40.9886 109.278 42.1077C108.576 43.2093 107.621 44.0543 106.412 44.6428C105.202 45.2313 103.852 45.4949 102.359 45.4336ZM102.479 42.5123C103.735 42.5638 104.79 42.1878 105.643 41.3841C106.496 40.5805 106.951 39.4961 107.007 38.1309C107.063 36.7658 106.699 35.6478 105.914 34.7769C105.13 33.906 104.109 33.4447 102.853 33.3932C101.597 33.3416 100.543 33.7177 99.6893 34.5213C98.854 35.3257 98.4083 36.4105 98.3523 37.7756C98.2963 39.1407 98.6515 40.2584 99.418 41.1286C100.203 41.9995 101.223 42.4607 102.479 42.5123Z" fill="#02071B"/>
<path d="M114.243 25.4374L117.656 25.5775L116.824 45.8361L113.412 45.696L114.243 25.4374Z" fill="#02071B"/>
<path d="M127.479 31.5052C129.627 31.5934 131.243 32.1794 132.329 33.2632C133.434 34.3296 133.944 35.9003 133.859 37.9753L133.508 46.521L130.286 46.3888L130.359 44.6141C129.914 45.234 129.294 45.7008 128.497 46.0145C127.719 46.3107 126.784 46.4364 125.692 46.3916C124.6 46.3467 123.651 46.1255 122.847 45.7278C122.044 45.312 121.428 44.7671 121 44.0931C120.591 43.4017 120.403 42.6374 120.438 41.8001C120.492 40.4896 121.017 39.4628 122.014 38.7197C123.03 37.9592 124.584 37.6219 126.677 37.7078L130.445 37.8625L130.454 37.6441C130.496 36.6248 130.218 35.8294 129.622 35.2579C129.044 34.6872 128.154 34.3772 126.953 34.3279C126.134 34.2943 125.318 34.3884 124.507 34.6104C123.714 34.8331 123.035 35.1607 122.47 35.5933L121.234 33.0539C122.023 32.5028 122.96 32.0946 124.047 31.8293C125.134 31.5639 126.278 31.4559 127.479 31.5052ZM126.504 43.9362C127.359 43.9713 128.122 43.8112 128.793 43.4559C129.483 43.0831 129.98 42.5382 130.282 41.8214L130.352 40.1286L126.83 39.984C124.864 39.9033 123.855 40.5091 123.802 41.8014C123.776 42.4203 124.002 42.9218 124.478 43.3061C124.955 43.6903 125.63 43.9003 126.504 43.9362Z" fill="#02071B"/>
<path d="M146.766 32.2971C148.604 32.3725 150.057 32.97 151.123 34.0895C152.189 35.209 152.679 36.8244 152.592 38.9358L152.249 47.2905L148.836 47.1503L149.161 39.2326C149.214 37.9584 148.953 36.9905 148.378 36.3288C147.804 35.6489 146.962 35.2861 145.852 35.2405C144.596 35.189 143.588 35.5305 142.829 36.2651C142.07 36.9815 141.662 38.0495 141.604 39.4693L141.301 46.841L137.888 46.7009L138.487 32.1212L141.736 32.2546L141.658 34.1385C142.25 33.4882 142.981 33.0077 143.851 32.697C144.72 32.3863 145.692 32.253 146.766 32.2971Z" fill="#02071B"/>
<path d="M162.754 32.9534C164.901 33.0416 166.518 33.6276 167.604 34.7114C168.709 35.7778 169.219 37.3485 169.134 39.4235L168.783 47.9692L165.561 47.837L165.634 46.0623C165.189 46.6822 164.568 47.149 163.772 47.4627C162.994 47.7589 162.059 47.8846 160.966 47.8398C159.874 47.7949 158.926 47.5737 158.122 47.176C157.319 46.7602 156.703 46.2153 156.275 45.5413C155.866 44.8499 155.678 44.0856 155.713 43.2483C155.766 41.9378 156.292 40.911 157.289 40.1679C158.304 39.4074 159.859 39.0701 161.952 39.156L165.72 39.3107L165.729 39.0923C165.771 38.073 165.493 37.2776 164.897 36.7061C164.319 36.1354 163.429 35.8254 162.228 35.7761C161.408 35.7425 160.593 35.8366 159.782 36.0586C158.989 36.2813 158.31 36.6089 157.745 37.0415L156.509 34.5021C157.298 33.951 158.235 33.5428 159.322 33.2775C160.408 33.0121 161.552 32.9041 162.754 32.9534ZM161.778 45.3844C162.634 45.4195 163.397 45.2594 164.068 44.9041C164.758 44.5313 165.254 43.9864 165.557 43.2696L165.627 41.5768L162.105 41.4322C160.139 41.3515 159.129 41.9573 159.076 43.2497C159.051 43.8685 159.277 44.3701 159.753 44.7543C160.23 45.1385 160.905 45.3485 161.778 45.3844Z" fill="#02071B"/>
</svg>
